<?xml version="1.0" encoding="UTF-8" standalone="no"?>
<svg
   xmlns:dc="http://purl.org/dc/elements/1.1/"
   xmlns:cc="http://creativecommons.org/ns#"
   xmlns:rdf="http://www.w3.org/1999/02/22-rdf-syntax-ns#"
   xmlns:svg="http://www.w3.org/2000/svg"
   xmlns="http://www.w3.org/2000/svg"
   xmlns:xlink="http://www.w3.org/1999/xlink"
   id="svg8"
   version="1.1"
   viewBox="0 0 100 100"
   height="100"
   width="100">
  <defs
     id="defs2">
    <clipPath
       id="clipPath937"
       clipPathUnits="userSpaceOnUse">
      <circle
         style="opacity:1;vector-effect:none;fill:#e6e6e6;fill-opacity:1;stroke:none;stroke-width:0.64814806;stroke-linecap:round;stroke-linejoin:round;stroke-miterlimit:4;stroke-dasharray:none;stroke-dashoffset:0;stroke-opacity:1;paint-order:markers fill stroke"
         id="circle939"
         cx="2.8247621e-07"
         cy="-0.00027972413"
         r="50" />
    </clipPath>
  </defs>
  <metadata
     id="metadata5">
    <rdf:RDF>
      <cc:Work
         rdf:about="">
        <dc:format>image/svg+xml</dc:format>
        <dc:type
           rdf:resource="http://purl.org/dc/dcmitype/StillImage" />
        <dc:title></dc:title>
      </cc:Work>
    </rdf:RDF>
  </metadata>
  <g
     style="display:none"
     id="layer1">
    <image
       width="139.72601"
       height="100"
       preserveAspectRatio="none"
       xlink:href="file:///home/daniele/hack/git/naso-gogol/naso-ng/src/assets/pietroburgo.jpg"
       id="image110"
       x="-19.863007"
       y="1.2694414e-08" />
  </g>
  <g
     style="display:none"
     id="layer2">
    <g
       transform="matrix(0.77803823,0,0,0.77803823,10.961811,4.3058428)"
       id="g944">
      <path
         style="opacity:1;vector-effect:none;fill:#d40000;fill-opacity:0.66666667;stroke:none;stroke-width:6.95384121;stroke-linecap:round;stroke-linejoin:round;stroke-miterlimit:4;stroke-dasharray:none;stroke-dashoffset:0;stroke-opacity:0.33333333;paint-order:markers fill stroke"
         id="path114"
         d="m 1.6136747,26.302469 c -0.092832,0 -1.54398602,-3.17221 -1.61908853,-3.226775 -0.07510252,-0.05457 -3.54048487,-0.454428 -3.56917157,-0.542716 -0.028687,-0.08829 2.5398331,-2.448685 2.5685197,-2.536973 0.0286866,-0.08829 -0.6618834,-3.507627 -0.5867809,-3.562192 0.075102,-0.05457 3.1136892,1.658839 3.206521,1.658839 0.092832,0 3.1314185,-1.713405 3.206521,-1.65884 0.075102,0.05457 -0.6154673,3.473904 -0.5867807,3.562193 0.028687,0.08829 2.5972064,2.448684 2.5685198,2.536973 -0.028687,0.08829 -3.4940689,0.488151 -3.5691714,0.542716 -0.075103,0.05457 -1.5262566,3.226775 -1.6190884,3.226775 z"
         transform="scale(-1)" />
      <circle
         style="opacity:1;vector-effect:none;fill:none;fill-opacity:0.66666667;stroke:#ff0000;stroke-width:2;stroke-linecap:round;stroke-linejoin:round;stroke-miterlimit:4;stroke-dasharray:none;stroke-dashoffset:0;stroke-opacity:0.66666667;paint-order:markers fill stroke"
         id="path940"
         cx="-1.6136745"
         cy="-20.619293"
         r="6.9642859" />
    </g>
    <use
       height="100%"
       width="100%"
       transform="rotate(15,-148.60096,37.921587)"
       id="use952"
       xlink:href="#g944"
       y="0"
       x="0" />
    <use
       x="0"
       y="0"
       xlink:href="#g944"
       id="use954"
       transform="rotate(15,-125.63468,283.53755)"
       width="100%"
       height="100%" />
    <use
       height="100%"
       width="100%"
       transform="rotate(15,-234.3658,354.77625)"
       id="use956"
       xlink:href="#g944"
       y="0"
       x="0" />
    <use
       x="0"
       y="0"
       xlink:href="#g944"
       id="use958"
       transform="rotate(15,-227.36291,239.06843)"
       width="100%"
       height="100%" />
    <use
       height="100%"
       width="100%"
       transform="rotate(15,-278.5558,124.06801)"
       id="use960"
       xlink:href="#g944"
       y="0"
       x="0" />
    <use
       x="0"
       y="0"
       xlink:href="#g944"
       id="use962"
       transform="rotate(15,-230.94629,2.1731828)"
       width="100%"
       height="100%" />
    <use
       height="100%"
       width="100%"
       transform="rotate(15,-126.81701,162.55499)"
       id="use964"
       xlink:href="#g944"
       y="0"
       x="0" />
    <path
       id="segment"
       d="M -0.17857143,6.139371e-7 50.446428,50.625"
       style="fill:none;stroke:#00ccff;stroke-width:1px;stroke-linecap:butt;stroke-linejoin:miter;stroke-opacity:1" />
  </g>
  <g
     style="display:none"
     id="layer3">
    <image
       xlink:href="Nevskij-icon-02.png"
       width="140.48317"
       height="140.48317"
       preserveAspectRatio="none"
       id="image90"
       x="-71.432701"
       y="-64.16906" />
    <circle
       r="50"
       cy="0"
       cx="0"
       id="path93"
       style="opacity:1;vector-effect:none;fill:#000000;fill-opacity:1;stroke:none;stroke-width:2.01438856;stroke-linecap:round;stroke-linejoin:round;stroke-miterlimit:4;stroke-dasharray:none;stroke-dashoffset:0;stroke-opacity:1;paint-order:markers fill stroke" />
    <image
       xlink:href="Kazan-icon-02.png"
       width="154.37878"
       height="147.8373"
       preserveAspectRatio="none"
       id="image68"
       x="-77.367348"
       y="-73.669762" />
    <image
       xlink:href="Kazan-icon-SCRITTA.png"
       width="99.480148"
       height="22.474625"
       preserveAspectRatio="none"
       id="image79"
       x="-49.86834"
       y="-11.057654" />
  </g>
  <g
     style="display:none"
     id="layer5">
    <circle
       style="opacity:1;vector-effect:none;fill:#e6e6e6;fill-opacity:1;stroke:none;stroke-width:0.64814806;stroke-linecap:round;stroke-linejoin:round;stroke-miterlimit:4;stroke-dasharray:none;stroke-dashoffset:0;stroke-opacity:1;paint-order:markers fill stroke"
       id="circle874"
       cx="2.8247621e-07"
       cy="-2.9021112e-07"
       r="50" />
    <g
       id="naso-mappa">
      <path
         style="fill:#ffd5d5;stroke:#ff8080;stroke-width:3.49195528px;stroke-linecap:butt;stroke-linejoin:miter;stroke-opacity:1"
         d="M -46.382312,38.828708 C -69.877967,36.800616 -63.998667,25.73409 -57.606469,14.509735 v 0 l 53.9604047,-56.919307 v 0 c 4.34566839,-3.760658 6.7504382,-9.462211 21.2011613,-3.117817 v 0 l -2.708245,86.062503 v 0 C 5.6040656,45.232035 12.092293,38.919792 -0.64059783,33.146366 -18.917875,23.97647 -39.322347,37.112766 -46.382312,38.828708 Z"
         id="path843-3" />
      <path
         style="fill:#ffd5d5;stroke:#ff8080;stroke-width:3.92886448px;stroke-linecap:butt;stroke-linejoin:miter;stroke-opacity:1"
         d="m -34.744045,35.440545 c -4.768474,3.007798 3.733424,-0.722859 9.333333,6.965262 18.1105716,6.788434 29.4607877,2.896046 40.257564,-1.870693 L -2.7782331,23.97647 C -11.522857,16.705256 -25.999456,29.8923 -34.744045,35.440545 Z"
         id="path851-8" />
    </g>
  </g>
  <g
     style="display:none"
     id="layer4">
    <g
       id="panino-sotto">
      <path
         id="path34"
         d="M 4.1458503,55.900877 C 28.737307,64.320636 57.344981,66.250344 96.431527,54.913864 92.646406,64.996373 89.545234,75.717237 76.19777,76.874895 L 19.691298,76.134635 C 8.8220344,72.044191 5.1978308,64.572719 4.1458503,55.900877 Z"
         style="fill:#c87137;stroke:#784421;stroke-width:1.38181758px;stroke-linecap:round;stroke-linejoin:round;stroke-opacity:1" />
      <path
         style="fill:#ffeeaa;stroke:#784421;stroke-width:1.38181758px;stroke-linecap:butt;stroke-linejoin:miter;stroke-opacity:1"
         d="M 4.1458503,55.900877 C 28.737307,64.320636 57.344981,66.250344 96.431527,54.913864 95.528208,52.718117 33.027056,45.132043 4.1458503,55.900877 Z"
         id="path36" />
    </g>
    <g
       id="panino-naso">
      <path
         style="fill:#ffd5d5;stroke:#ff8080;stroke-width:1px;stroke-linecap:butt;stroke-linejoin:miter;stroke-opacity:1"
         d="m 39.86465,59.427754 c -6.72851,-0.58079 -5.04484,-3.749939 -3.21429,-6.964286 v 0 L 52.103137,36.163343 v 0 c 1.24448,-1.076949 1.93314,-2.709717 6.07143,-0.892857 v 0 L 57.399,59.916422 v 0 c -2.64688,1.345069 -0.78883,-0.462584 -4.43518,-2.115935 -5.23411,-2.626006 -11.07739,1.135868 -13.09917,1.627267 z"
         id="path843" />
      <path
         style="fill:#ffd5d5;stroke:#ff8080;stroke-width:1.12511885px;stroke-linecap:butt;stroke-linejoin:miter;stroke-opacity:1"
         d="m 43.19753,58.457477 c -1.36556,0.861351 1.06915,-0.207007 2.67281,1.99466 5.18637,1.944021 8.43676,0.829348 11.52866,-0.535715 l -5.04734,-4.741941 c -2.50422,-2.082276 -6.64992,1.694131 -9.15413,3.282996 z"
         id="path851" />
    </g>
    <g
       id="panino-sopra">
      <text
         id="text847"
         y="19.440334"
         x="50.089806"
         style="font-style:normal;font-variant:normal;font-weight:normal;font-stretch:normal;font-size:17.33333397px;line-height:1.25;font-family:Garamond;-inkscape-font-specification:'Garamond, Normal';font-variant-ligatures:normal;font-variant-caps:normal;font-variant-numeric:normal;font-feature-settings:normal;text-align:center;letter-spacing:0px;word-spacing:0px;writing-mode:lr-tb;text-anchor:middle;fill:#e6e6e6;fill-opacity:1;stroke:none"
         xml:space="preserve"><tspan
           y="19.440334"
           x="50.089806"
           id="tspan845">Gogol game</tspan></text>
      <path
         style="fill:#c87137;stroke:#784421;stroke-width:1.38181758px;stroke-linecap:round;stroke-linejoin:round;stroke-opacity:1"
         d="M 96.431527,54.913864 C 61.115025,66.364441 30.970374,63.787721 4.1458543,55.900877 7.930976,45.818368 11.032148,35.097504 24.379612,33.939846 l 56.506471,0.74026 c 10.869264,4.090444 14.493468,11.561916 15.545444,20.233758 z"
         id="path32" />
    </g>
  </g>
  <g
     id="layer6">
    <path
       id="rotatescreen"
       d="m 33.180866,82.693189 c -0.965874,-0.450686 -1.659212,-1.185924 -2.218102,-2.35213 L 30.492304,79.35938 V 67.129165 c 0,-12.097712 0.0032,-12.2387 0.292021,-13.010731 0.407404,-1.088888 1.292119,-2.125785 2.210845,-2.591133 l 0.754257,-0.382045 29.244802,-0.0019 c 16.592245,-0.0013 29.426393,0.05094 29.664543,0.120645 1.29137,0.377887 2.37809,1.287174 2.92412,2.446705 l 0.32634,0.693001 10e-4,12.689425 0.001,12.689423 -0.35317,0.708703 c -0.4227,0.848245 -1.36608,1.753503 -2.25591,2.164742 l -0.64811,0.299504 -29.383399,0.03396 -29.383401,0.03396 z M 88.150292,66.946393 V 53.085959 l -24.844215,0.03506 -24.844218,0.03506 -0.03532,13.825443 -0.03531,13.82544 H 63.270762 88.150298 Z M 8.428876,80.539906 C 7.461523,80.161658 6.863335,79.752852 6.238465,79.042962 5.184542,77.845644 5.259556,80.336514 5.299984,47.879876 L 5.336264,18.777065 5.79254,17.85027 c 0.495982,-1.007452 1.209198,-1.716296 2.191419,-2.177996 0.598175,-0.281175 0.778893,-0.285049 13.305153,-0.285049 h 12.69875 l 0.821233,0.437716 c 0.972072,0.518106 1.552428,1.139478 2.044871,2.189378 l 0.360514,0.768628 0.03751,15.696561 0.03751,15.696556 H 36.38572 35.48194 V 36.454603 22.73311 H 21.206045 6.930149 v 25.225369 25.225367 h 11.365277 11.365277 v 3.052685 c 0,2.657366 0.03454,3.150953 0.266707,3.811526 l 0.266713,0.75884 -10.557828,-0.0065 C 9.737639,80.794597 9.03791,80.778057 8.428876,80.53992 Z m 49.40198,-33.503374 c -2.736524,-4.736565 -3.242616,-5.623411 -3.311399,-5.802664 -0.06568,-0.171144 0.108849,-0.205471 1.044787,-0.205471 h 1.123635 v -0.408669 c 0,-0.919223 -0.438142,-3.656799 -0.766743,-4.790738 -1.575857,-5.437953 -5.619447,-8.604084 -11.772229,-9.217644 -0.836114,-0.08338 -1.912006,-0.109643 -2.390866,-0.05836 l -0.870667,0.09324 V 24.911633 23.17704 l 0.935557,-0.09385 c 0.514556,-0.05165 1.712597,-0.02234 2.662305,0.0651 4.232636,0.389631 7.792071,1.909972 10.50503,4.487018 2.903724,2.758262 4.576187,6.610364 5.047609,11.625967 l 0.166096,1.767157 h 1.083278 c 0.595799,0 1.083271,0.04939 1.083271,0.109728 0,0.12905 -3.697211,6.553543 -3.872157,6.72849 -0.06641,0.06641 -0.361734,-0.300834 -0.667507,-0.830083 z"
       style="fill:#000000;stroke-width:0.13860093" />
  </g>
</svg>
