<?xml version="1.0" encoding="UTF-8" standalone="no"?>
<svg
   xmlns:dc="http://purl.org/dc/elements/1.1/"
   xmlns:cc="http://creativecommons.org/ns#"
   xmlns:rdf="http://www.w3.org/1999/02/22-rdf-syntax-ns#"
   xmlns:svg="http://www.w3.org/2000/svg"
   xmlns="http://www.w3.org/2000/svg"
   xmlns:xlink="http://www.w3.org/1999/xlink"
   id="svg8"
   version="1.1"
   viewBox="0 0 100 100"
   height="100"
   width="100">
  <defs
     id="defs2" />
  <metadata
     id="metadata5">
    <rdf:RDF>
      <cc:Work
         rdf:about="">
        <dc:format>image/svg+xml</dc:format>
        <dc:type
           rdf:resource="http://purl.org/dc/dcmitype/StillImage" />
        <dc:title></dc:title>
      </cc:Work>
    </rdf:RDF>
  </metadata>
  <g
     style="display:none"
     id="layer1">
    <image
       width="139.72601"
       height="100"
       preserveAspectRatio="none"
       xlink:href="file:///home/daniele/hack/git/naso-gogol/naso-ng/src/assets/pietroburgo.jpg"
       id="image110"
       x="-19.863007"
       y="1.2694414e-08" />
  </g>
  <g
     style="display:none"
     id="layer2">
    <g
       transform="matrix(0.77803823,0,0,0.77803823,10.961811,4.3058428)"
       id="g944">
      <path
         style="opacity:1;vector-effect:none;fill:#d40000;fill-opacity:0.66666667;stroke:none;stroke-width:6.95384121;stroke-linecap:round;stroke-linejoin:round;stroke-miterlimit:4;stroke-dasharray:none;stroke-dashoffset:0;stroke-opacity:0.33333333;paint-order:markers fill stroke"
         id="path114"
         d="m 1.6136747,26.302469 c -0.092832,0 -1.54398602,-3.17221 -1.61908853,-3.226775 -0.07510252,-0.05457 -3.54048487,-0.454428 -3.56917157,-0.542716 -0.028687,-0.08829 2.5398331,-2.448685 2.5685197,-2.536973 0.0286866,-0.08829 -0.6618834,-3.507627 -0.5867809,-3.562192 0.075102,-0.05457 3.1136892,1.658839 3.206521,1.658839 0.092832,0 3.1314185,-1.713405 3.206521,-1.65884 0.075102,0.05457 -0.6154673,3.473904 -0.5867807,3.562193 0.028687,0.08829 2.5972064,2.448684 2.5685198,2.536973 -0.028687,0.08829 -3.4940689,0.488151 -3.5691714,0.542716 -0.075103,0.05457 -1.5262566,3.226775 -1.6190884,3.226775 z"
         transform="scale(-1)" />
      <circle
         style="opacity:1;vector-effect:none;fill:none;fill-opacity:0.66666667;stroke:#ff0000;stroke-width:2;stroke-linecap:round;stroke-linejoin:round;stroke-miterlimit:4;stroke-dasharray:none;stroke-dashoffset:0;stroke-opacity:0.66666667;paint-order:markers fill stroke"
         id="path940"
         cx="-1.6136745"
         cy="-20.619293"
         r="6.9642859" />
    </g>
    <use
       height="100%"
       width="100%"
       transform="rotate(15,-148.60096,37.921587)"
       id="use952"
       xlink:href="#g944"
       y="0"
       x="0" />
    <use
       x="0"
       y="0"
       xlink:href="#g944"
       id="use954"
       transform="rotate(15,-125.63468,283.53755)"
       width="100%"
       height="100%" />
    <use
       height="100%"
       width="100%"
       transform="rotate(15,-234.3658,354.77625)"
       id="use956"
       xlink:href="#g944"
       y="0"
       x="0" />
    <use
       x="0"
       y="0"
       xlink:href="#g944"
       id="use958"
       transform="rotate(15,-227.36291,239.06843)"
       width="100%"
       height="100%" />
    <use
       height="100%"
       width="100%"
       transform="rotate(15,-278.5558,124.06801)"
       id="use960"
       xlink:href="#g944"
       y="0"
       x="0" />
    <use
       x="0"
       y="0"
       xlink:href="#g944"
       id="use962"
       transform="rotate(15,-230.94629,2.1731828)"
       width="100%"
       height="100%" />
    <use
       height="100%"
       width="100%"
       transform="rotate(15,-126.81701,162.55499)"
       id="use964"
       xlink:href="#g944"
       y="0"
       x="0" />
    <path
       id="segment"
       d="M -0.17857143,6.139371e-7 50.446428,50.625"
       style="fill:none;stroke:#00ccff;stroke-width:1px;stroke-linecap:butt;stroke-linejoin:miter;stroke-opacity:1" />
  </g>
  <g
     style="display:none"
     id="layer3">
    <image
       width="106.1088"
       height="117.83941"
       preserveAspectRatio="none"
       xlink:href="file:///home/daniele/hack/git/naso-gogol/naso-ng/src/assets/Kazan-icon-01.png"
       id="image74"
       x="-52.120205"
       y="-56.419712"
       style="display:inline" />
    <image
       width="97.710739"
       height="123.57143"
       preserveAspectRatio="none"
       xlink:href="file:///home/daniele/hack/git/naso-gogol/naso-ng/src/assets/Nevskij-icon-01.png"
       id="image85"
       x="-47.921173"
       y="-59.285713"
       style="display:inline" />
  </g>
  <g
     id="layer4">
    <g
       id="panino-sotto">
      <path
         id="path34"
         d="M 4.1458503,55.900877 C 28.737307,64.320636 57.344981,66.250344 96.431527,54.913864 92.646406,64.996373 89.545234,75.717237 76.19777,76.874895 L 19.691298,76.134635 C 8.8220344,72.044191 5.1978308,64.572719 4.1458503,55.900877 Z"
         style="fill:#c87137;stroke:#784421;stroke-width:1.38181758px;stroke-linecap:round;stroke-linejoin:round;stroke-opacity:1" />
      <path
         style="fill:#ffeeaa;stroke:#784421;stroke-width:1.38181758px;stroke-linecap:butt;stroke-linejoin:miter;stroke-opacity:1"
         d="M 4.1458503,55.900877 C 28.737307,64.320636 57.344981,66.250344 96.431527,54.913864 95.528208,52.718117 33.027056,45.132043 4.1458503,55.900877 Z"
         id="path36" />
    </g>
    <g
       id="panino-naso">
      <path
         style="fill:#ffd5d5;stroke:#ff8080;stroke-width:1px;stroke-linecap:butt;stroke-linejoin:miter;stroke-opacity:1"
         d="m 39.86465,59.427754 c -6.72851,-0.58079 -5.04484,-3.749939 -3.21429,-6.964286 v 0 L 52.103137,36.163343 v 0 c 1.24448,-1.076949 1.93314,-2.709717 6.07143,-0.892857 v 0 L 57.399,59.916422 v 0 c -2.64688,1.345069 -0.78883,-0.462584 -4.43518,-2.115935 -5.23411,-2.626006 -11.07739,1.135868 -13.09917,1.627267 z"
         id="path843" />
      <path
         style="fill:#ffd5d5;stroke:#ff8080;stroke-width:1.12511885px;stroke-linecap:butt;stroke-linejoin:miter;stroke-opacity:1"
         d="m 43.19753,58.457477 c -1.36556,0.861351 1.06915,-0.207007 2.67281,1.99466 5.18637,1.944021 8.43676,0.829348 11.52866,-0.535715 l -5.04734,-4.741941 c -2.50422,-2.082276 -6.64992,1.694131 -9.15413,3.282996 z"
         id="path851" />
    </g>
    <g
       id="panino-sopra">
      <path
         style="fill:#c87137;stroke:#784421;stroke-width:1.38181758px;stroke-linecap:round;stroke-linejoin:round;stroke-opacity:1"
         d="M 96.431527,54.913864 C 61.115025,66.364441 30.970374,63.787721 4.1458543,55.900877 7.930976,45.818368 11.032148,35.097504 24.379612,33.939846 l 56.506471,0.74026 c 10.869264,4.090444 14.493468,11.561916 15.545444,20.233758 z"
         id="path32" />
    </g>
  </g>
</svg>
