<?xml version="1.0" encoding="UTF-8" standalone="no"?>
<!-- Created with Inkscape (http://www.inkscape.org/) -->

<svg
   xmlns:dc="http://purl.org/dc/elements/1.1/"
   xmlns:cc="http://creativecommons.org/ns#"
   xmlns:rdf="http://www.w3.org/1999/02/22-rdf-syntax-ns#"
   xmlns:svg="http://www.w3.org/2000/svg"
   xmlns="http://www.w3.org/2000/svg"
   xmlns:xlink="http://www.w3.org/1999/xlink"
   xmlns:sodipodi="http://sodipodi.sourceforge.net/DTD/sodipodi-0.dtd"
   xmlns:inkscape="http://www.inkscape.org/namespaces/inkscape"
   width="100"
   height="100"
   viewBox="0 0 100 100"
   version="1.1"
   id="svg8"
   inkscape:version="0.92.3 (2405546, 2018-03-11)"
   sodipodi:docname="naso-gogol.svg">
  <defs
     id="defs2" />
  <sodipodi:namedview
     id="base"
     pagecolor="#ffffff"
     bordercolor="#666666"
     borderopacity="1.0"
     inkscape:pageopacity="0.0"
     inkscape:pageshadow="2"
     inkscape:zoom="3.959798"
     inkscape:cx="75.981081"
     inkscape:cy="52.069944"
     inkscape:document-units="px"
     inkscape:current-layer="panino-sopra"
     showgrid="false"
     units="px"
     inkscape:window-width="1853"
     inkscape:window-height="1025"
     inkscape:window-x="67"
     inkscape:window-y="27"
     inkscape:window-maximized="1"
     inkscape:lockguides="true" />
  <metadata
     id="metadata5">
    <rdf:RDF>
      <cc:Work
         rdf:about="">
        <dc:format>image/svg+xml</dc:format>
        <dc:type
           rdf:resource="http://purl.org/dc/dcmitype/StillImage" />
        <dc:title />
      </cc:Work>
    </rdf:RDF>
  </metadata>
  <g
     inkscape:label="mappa"
     inkscape:groupmode="layer"
     id="layer1"
     style="display:none">
    <image
       sodipodi:absref="/home/daniele/hack/git/naso-gogol/naso-ng/src/assets/pietroburgo.jpg"
       y="1.2694414e-08"
       x="-19.863007"
       id="image110"
       xlink:href="file:///home/daniele/hack/git/naso-gogol/naso-ng/src/assets/pietroburgo.jpg"
       preserveAspectRatio="none"
       height="100"
       width="139.72601" />
  </g>
  <g
     inkscape:groupmode="layer"
     id="layer2"
     inkscape:label="locations"
     style="display:none">
    <g
       id="g944"
       transform="matrix(0.77803823,0,0,0.77803823,10.961811,4.3058428)">
      <path
         transform="scale(-1)"
         d="m 1.6136747,26.302469 c -0.092832,0 -1.54398602,-3.17221 -1.61908853,-3.226775 -0.07510252,-0.05457 -3.54048487,-0.454428 -3.56917157,-0.542716 -0.028687,-0.08829 2.5398331,-2.448685 2.5685197,-2.536973 0.0286866,-0.08829 -0.6618834,-3.507627 -0.5867809,-3.562192 0.075102,-0.05457 3.1136892,1.658839 3.206521,1.658839 0.092832,0 3.1314185,-1.713405 3.206521,-1.65884 0.075102,0.05457 -0.6154673,3.473904 -0.5867807,3.562193 0.028687,0.08829 2.5972064,2.448684 2.5685198,2.536973 -0.028687,0.08829 -3.4940689,0.488151 -3.5691714,0.542716 -0.075103,0.05457 -1.5262566,3.226775 -1.6190884,3.226775 z"
         inkscape:randomized="0"
         inkscape:rounded="0.025713777"
         inkscape:flatsided="false"
         sodipodi:arg2="2.1991148"
         sodipodi:arg1="1.5707963"
         sodipodi:r2="2.7545578"
         sodipodi:r1="5.4552593"
         sodipodi:cy="20.84721"
         sodipodi:cx="1.6136745"
         sodipodi:sides="5"
         id="path114"
         style="opacity:1;vector-effect:none;fill:#d40000;fill-opacity:0.66666667;stroke:none;stroke-width:6.95384121;stroke-linecap:round;stroke-linejoin:round;stroke-miterlimit:4;stroke-dasharray:none;stroke-dashoffset:0;stroke-opacity:0.33333333;paint-order:markers fill stroke"
         sodipodi:type="star" />
      <circle
         r="6.9642859"
         cy="-20.619293"
         cx="-1.6136745"
         id="path940"
         style="opacity:1;vector-effect:none;fill:none;fill-opacity:0.66666667;stroke:#ff0000;stroke-width:2;stroke-linecap:round;stroke-linejoin:round;stroke-miterlimit:4;stroke-dasharray:none;stroke-dashoffset:0;stroke-opacity:0.66666667;paint-order:markers fill stroke" />
    </g>
    <use
       x="0"
       y="0"
       xlink:href="#g944"
       id="use952"
       transform="rotate(15,-148.60096,37.921587)"
       width="100%"
       height="100%" />
    <use
       height="100%"
       width="100%"
       transform="rotate(15,-125.63468,283.53755)"
       id="use954"
       xlink:href="#g944"
       y="0"
       x="0" />
    <use
       x="0"
       y="0"
       xlink:href="#g944"
       id="use956"
       transform="rotate(15,-234.3658,354.77625)"
       width="100%"
       height="100%" />
    <use
       height="100%"
       width="100%"
       transform="rotate(15,-227.36291,239.06843)"
       id="use958"
       xlink:href="#g944"
       y="0"
       x="0" />
    <use
       x="0"
       y="0"
       xlink:href="#g944"
       id="use960"
       transform="rotate(15,-278.5558,124.06801)"
       width="100%"
       height="100%" />
    <use
       height="100%"
       width="100%"
       transform="rotate(15,-230.94629,2.1731828)"
       id="use962"
       xlink:href="#g944"
       y="0"
       x="0" />
    <use
       x="0"
       y="0"
       xlink:href="#g944"
       id="use964"
       transform="rotate(15,-126.81701,162.55499)"
       width="100%"
       height="100%" />
    <path
       style="fill:none;stroke:#00ccff;stroke-width:1px;stroke-linecap:butt;stroke-linejoin:miter;stroke-opacity:1"
       d="M -0.17857143,6.139371e-7 50.446428,50.625"
       id="segment"
       inkscape:connector-curvature="0"
       inkscape:label="#path27" />
  </g>
  <g
     inkscape:groupmode="layer"
     id="layer3"
     inkscape:label="vincenzo"
     style="display:none">
    <image
       style="display:inline"
       sodipodi:absref="/home/daniele/hack/git/naso-gogol/naso-ng/src/assets/Kazan-icon-01.png"
       y="-56.419712"
       x="-52.120205"
       id="image74"
       xlink:href="file:///home/daniele/hack/git/naso-gogol/naso-ng/src/assets/Kazan-icon-01.png"
       preserveAspectRatio="none"
       height="117.83941"
       width="106.1088" />
    <image
       style="display:inline"
       sodipodi:absref="/home/daniele/hack/git/naso-gogol/naso-ng/src/assets/Nevskij-icon-01.png"
       y="-59.285713"
       x="-47.921173"
       id="image85"
       xlink:href="file:///home/daniele/hack/git/naso-gogol/naso-ng/src/assets/Nevskij-icon-01.png"
       preserveAspectRatio="none"
       height="123.57143"
       width="97.710739" />
  </g>
  <g
     inkscape:groupmode="layer"
     id="layer4"
     inkscape:label="panino">
    <g
       id="panino-sotto"
       inkscape:label="#g857">
      <path
         style="fill:#c87137;stroke:#784421;stroke-width:1.38181758px;stroke-linecap:round;stroke-linejoin:round;stroke-opacity:1"
         d="M 4.1458503,55.900877 C 28.737307,64.320636 57.344981,66.250344 96.431527,54.913864 92.646406,64.996373 89.545234,75.717237 76.19777,76.874895 L 19.691298,76.134635 C 8.8220344,72.044191 5.1978308,64.572719 4.1458503,55.900877 Z"
         id="path34"
         inkscape:connector-curvature="0"
         sodipodi:nodetypes="ccccc" />
      <path
         sodipodi:nodetypes="ccc"
         inkscape:connector-curvature="0"
         id="path36"
         d="M 4.1458503,55.900877 C 28.737307,64.320636 57.344981,66.250344 96.431527,54.913864 95.528208,52.718117 33.027056,45.132043 4.1458503,55.900877 Z"
         style="fill:#ffeeaa;stroke:#784421;stroke-width:1.38181758px;stroke-linecap:butt;stroke-linejoin:miter;stroke-opacity:1" />
    </g>
    <g
       id="panino-naso"
       inkscape:label="#g864">
      <path
         sodipodi:nodetypes="ccccccccccc"
         inkscape:connector-curvature="0"
         id="path843"
         d="m 39.86465,59.427754 c -6.72851,-0.58079 -5.04484,-3.749939 -3.21429,-6.964286 v 0 L 52.103137,36.163343 v 0 c 1.24448,-1.076949 1.93314,-2.709717 6.07143,-0.892857 v 0 L 57.399,59.916422 v 0 c -2.64688,1.345069 -0.78883,-0.462584 -4.43518,-2.115935 -5.23411,-2.626006 -11.07739,1.135868 -13.09917,1.627267 z"
         style="fill:#ffd5d5;stroke:#ff8080;stroke-width:1px;stroke-linecap:butt;stroke-linejoin:miter;stroke-opacity:1" />
      <path
         sodipodi:nodetypes="ccccc"
         inkscape:connector-curvature="0"
         id="path851"
         d="m 43.19753,58.457477 c -1.36556,0.861351 1.06915,-0.207007 2.67281,1.99466 5.18637,1.944021 8.43676,0.829348 11.52866,-0.535715 l -5.04734,-4.741941 c -2.50422,-2.082276 -6.64992,1.694131 -9.15413,3.282996 z"
         style="fill:#ffd5d5;stroke:#ff8080;stroke-width:1.12511885px;stroke-linecap:butt;stroke-linejoin:miter;stroke-opacity:1" />
    </g>
    <g
       id="panino-sopra"
       inkscape:label="#g860">
      <text
         xml:space="preserve"
         style="font-style:normal;font-variant:normal;font-weight:normal;font-stretch:normal;font-size:17.33333397px;line-height:1.25;font-family:Garamond;-inkscape-font-specification:'Garamond, Normal';font-variant-ligatures:normal;font-variant-caps:normal;font-variant-numeric:normal;font-feature-settings:normal;text-align:center;letter-spacing:0px;word-spacing:0px;writing-mode:lr-tb;text-anchor:middle;fill:#e6e6e6;fill-opacity:1;stroke:none;"
         x="50.089806"
         y="19.440334"
         id="text847"><tspan
           sodipodi:role="line"
           id="tspan845"
           x="50.089806"
           y="19.440334">Gogol game</tspan></text>
      <path
         sodipodi:nodetypes="ccccc"
         inkscape:connector-curvature="0"
         id="path32"
         d="M 96.431527,54.913864 C 61.115025,66.364441 30.970374,63.787721 4.1458543,55.900877 7.930976,45.818368 11.032148,35.097504 24.379612,33.939846 l 56.506471,0.74026 c 10.869264,4.090444 14.493468,11.561916 15.545444,20.233758 z"
         style="fill:#c87137;stroke:#784421;stroke-width:1.38181758px;stroke-linecap:round;stroke-linejoin:round;stroke-opacity:1" />
    </g>
  </g>
</svg>
