<?xml version="1.0" encoding="UTF-8" standalone="no"?>
<!-- Created with Inkscape (http://www.inkscape.org/) -->

<svg
   xmlns:dc="http://purl.org/dc/elements/1.1/"
   xmlns:cc="http://creativecommons.org/ns#"
   xmlns:rdf="http://www.w3.org/1999/02/22-rdf-syntax-ns#"
   xmlns:svg="http://www.w3.org/2000/svg"
   xmlns="http://www.w3.org/2000/svg"
   xmlns:xlink="http://www.w3.org/1999/xlink"
   xmlns:sodipodi="http://sodipodi.sourceforge.net/DTD/sodipodi-0.dtd"
   xmlns:inkscape="http://www.inkscape.org/namespaces/inkscape"
   width="100"
   height="100"
   viewBox="0 0 100 100"
   version="1.1"
   id="svg8"
   inkscape:version="0.92.3 (2405546, 2018-03-11)"
   sodipodi:docname="naso-gogol.svg">
  <defs
     id="defs2">
    <clipPath
       clipPathUnits="userSpaceOnUse"
       id="clipPath937">
      <circle
         r="50"
         cy="-0.00027972413"
         cx="2.8247621e-07"
         id="circle939"
         style="opacity:1;vector-effect:none;fill:#e6e6e6;fill-opacity:1;stroke:none;stroke-width:0.64814806;stroke-linecap:round;stroke-linejoin:round;stroke-miterlimit:4;stroke-dasharray:none;stroke-dashoffset:0;stroke-opacity:1;paint-order:markers fill stroke" />
    </clipPath>
  </defs>
  <sodipodi:namedview
     id="base"
     pagecolor="#ffffff"
     bordercolor="#666666"
     borderopacity="1.0"
     inkscape:pageopacity="0.0"
     inkscape:pageshadow="2"
     inkscape:zoom="2"
     inkscape:cx="411.4629"
     inkscape:cy="-40.871989"
     inkscape:document-units="px"
     inkscape:current-layer="layer7"
     showgrid="false"
     units="px"
     inkscape:window-width="1853"
     inkscape:window-height="1025"
     inkscape:window-x="67"
     inkscape:window-y="27"
     inkscape:window-maximized="1"
     inkscape:lockguides="true"
     objecttolerance="5" />
  <metadata
     id="metadata5">
    <rdf:RDF>
      <cc:Work
         rdf:about="">
        <dc:format>image/svg+xml</dc:format>
        <dc:type
           rdf:resource="http://purl.org/dc/dcmitype/StillImage" />
        <dc:title></dc:title>
      </cc:Work>
    </rdf:RDF>
  </metadata>
  <g
     inkscape:groupmode="layer"
     id="layer8"
     inkscape:label="master"
     style="display:none">
    <g
       style="display:inline"
       id="g944"
       transform="matrix(6.2780268,0,0,6.2780268,10.130692,129.44848)">
      <path
         transform="scale(-1)"
         d="m 1.6136747,26.302469 c -0.092832,0 -1.54398602,-3.17221 -1.61908853,-3.226775 -0.07510252,-0.05457 -3.54048487,-0.454428 -3.56917157,-0.542716 -0.028687,-0.08829 2.5398331,-2.448685 2.5685197,-2.536973 0.0286866,-0.08829 -0.6618834,-3.507627 -0.5867809,-3.562192 0.075102,-0.05457 3.1136892,1.658839 3.206521,1.658839 0.092832,0 3.1314185,-1.713405 3.206521,-1.65884 0.075102,0.05457 -0.6154673,3.473904 -0.5867807,3.562193 0.028687,0.08829 2.5972064,2.448684 2.5685198,2.536973 -0.028687,0.08829 -3.4940689,0.488151 -3.5691714,0.542716 -0.075103,0.05457 -1.5262566,3.226775 -1.6190884,3.226775 z"
         inkscape:randomized="0"
         inkscape:rounded="0.025713777"
         inkscape:flatsided="false"
         sodipodi:arg2="2.1991148"
         sodipodi:arg1="1.5707963"
         sodipodi:r2="2.7545578"
         sodipodi:r1="5.4552593"
         sodipodi:cy="20.84721"
         sodipodi:cx="1.6136745"
         sodipodi:sides="5"
         id="path114"
         style="opacity:1;vector-effect:none;fill:#d40000;fill-opacity:0.66666667;stroke:none;stroke-width:6.95384121;stroke-linecap:round;stroke-linejoin:round;stroke-miterlimit:4;stroke-dasharray:none;stroke-dashoffset:0;stroke-opacity:0.33333333;paint-order:markers fill stroke"
         sodipodi:type="star" />
      <circle
         r="6.9642859"
         cy="-20.619293"
         cx="-1.6136745"
         id="path940"
         style="opacity:1;vector-effect:none;fill:none;fill-opacity:0.66666667;stroke:#ff0000;stroke-width:2;stroke-linecap:round;stroke-linejoin:round;stroke-miterlimit:4;stroke-dasharray:none;stroke-dashoffset:0;stroke-opacity:0.66666667;paint-order:markers fill stroke" />
    </g>
  </g>
  <g
     inkscape:label="mappa"
     inkscape:groupmode="layer"
     id="layer1"
     style="display:none">
    <image
       sodipodi:absref="/home/daniele/hack/git/naso-gogol/naso-ng/src/assets/pietroburgo.jpg"
       y="1.2694414e-08"
       x="-19.863007"
       id="image110"
       xlink:href="file:///home/daniele/hack/git/naso-gogol/naso-ng/src/assets/pietroburgo.jpg"
       preserveAspectRatio="none"
       height="100"
       width="139.72601" />
  </g>
  <g
     inkscape:groupmode="layer"
     id="layer2"
     inkscape:label="locations"
     style="display:none">
    <path
       style="fill:none;stroke:#00ccff;stroke-width:1px;stroke-linecap:butt;stroke-linejoin:miter;stroke-opacity:1"
       d="M 62.198348,-60.609152 112.82335,-9.9841523"
       id="segment"
       inkscape:connector-curvature="0"
       inkscape:label="#path27" />
    <use
       style="display:inline"
       x="0"
       y="0"
       xlink:href="#g944"
       id="use62"
       transform="matrix(0.1,0,0,0.1,45.964235,47.399117)"
       width="100%"
       height="100%" />
    <use
       height="100%"
       width="100%"
       transform="matrix(0.1,0,0,0.1,65.940002,24.064593)"
       id="use131"
       xlink:href="#g944"
       y="0"
       x="0"
       style="display:inline" />
    <use
       style="display:inline"
       x="0"
       y="0"
       xlink:href="#g944"
       id="use133"
       transform="matrix(0.1,0,0,0.1,37.832508,26.716243)"
       width="100%"
       height="100%" />
    <use
       height="100%"
       width="100%"
       transform="matrix(0.1,0,0,0.1,92.456506,24.7717)"
       id="use135"
       xlink:href="#g944"
       y="0"
       x="0"
       style="display:inline" />
    <use
       style="display:inline"
       x="0"
       y="0"
       xlink:href="#g944"
       id="use137"
       transform="matrix(0.1,0,0,0.1,68.945206,68.965873)"
       width="100%"
       height="100%" />
    <use
       height="100%"
       width="100%"
       transform="matrix(0.1,0,0,0.1,89.097749,48.81333)"
       id="use139"
       xlink:href="#g944"
       y="0"
       x="0"
       style="display:inline" />
    <use
       style="display:inline"
       x="0"
       y="0"
       xlink:href="#g944"
       id="use141"
       transform="matrix(0.1,0,0,0.1,35.00408,66.137446)"
       width="100%"
       height="100%" />
    <use
       height="100%"
       width="100%"
       transform="matrix(0.1,0,0,0.1,1.5932845,48.636553)"
       id="use143"
       xlink:href="#g944"
       y="0"
       x="0"
       style="display:inline" />
  </g>
  <g
     inkscape:groupmode="layer"
     id="layer9"
     inkscape:label="tutorial"
     style="display:none">
    <g
       id="tutorial"
       inkscape:label="#g1005">
      <text
         xml:space="preserve"
         style="font-style:normal;font-variant:normal;font-weight:normal;font-stretch:normal;font-size:10.66666698px;line-height:1.25;font-family:Garamond;-inkscape-font-specification:'Garamond, Normal';font-variant-ligatures:normal;font-variant-caps:normal;font-variant-numeric:normal;font-feature-settings:normal;text-align:center;letter-spacing:0px;word-spacing:0px;writing-mode:lr-tb;text-anchor:middle;display:inline;opacity:0.75;fill:#483e37;fill-opacity:1;stroke:#483e37;stroke-width:2;stroke-miterlimit:4;stroke-dasharray:none"
         x="50.0625"
         y="93.136604"
         id="text971"><tspan
           sodipodi:role="line"
           id="tspan969"
           x="50.0625"
           y="93.136604">Esplora le tappe del naso</tspan></text>
      <text
         id="text847-3"
         y="93.136604"
         x="50.0625"
         style="font-style:normal;font-variant:normal;font-weight:normal;font-stretch:normal;font-size:10.66666698px;line-height:1.25;font-family:Garamond;-inkscape-font-specification:'Garamond, Normal';font-variant-ligatures:normal;font-variant-caps:normal;font-variant-numeric:normal;font-feature-settings:normal;text-align:center;letter-spacing:0px;word-spacing:0px;writing-mode:lr-tb;text-anchor:middle;display:inline;fill:#ffffff;fill-opacity:1;stroke:none"
         xml:space="preserve"><tspan
           y="93.136604"
           x="50.0625"
           id="tspan845-6"
           sodipodi:role="line">Esplora le tappe del naso</tspan></text>
    </g>
    <g
       id="touchfinger"
       inkscape:label="#g999">
      <path
         inkscape:connector-curvature="0"
         id="path993"
         d="m 0.3717935,-1.8265427 c 0.870507,0.01662 1.791673,0.615866 2.187695,1.47275998 l 0.180209,0.390323 0.01968,2.00237102 0.01928,2.002372 0.204213,-0.05233 c 0.112427,-0.02876 0.438568,-0.05043 0.724772,-0.0484 0.454293,0.0032 0.574414,0.02998 0.945116,0.212472 0.233543,0.114974 0.566694,0.351464 0.740511,0.525283 l 0.31635,0.315957 0.401341,-0.135746 c 0.31726,-0.10734 0.509009,-0.130308 0.915605,-0.109385 0.935638,0.04815 1.705248,0.550733 2.0846065,1.361407 l 0.188866,0.403702 0.236476,-0.06689 c 0.130113,-0.03679 0.43808,-0.06749 0.684244,-0.06807 1.011275,-0.0024 1.905345,0.627624 2.269932,1.599458 0.13529,0.360632 0.138078,0.427792 0.109777,2.7354057 -0.03431,2.79789 -0.08849,3.204948 -0.836124,6.298282 -0.539854,2.233645 -0.672131,3.062459 -0.763332,4.780272 -0.02441,0.459714 -0.156156,0.688316 -0.496954,0.862094 -0.203318,0.103673 -0.586225,0.111822 -5.2705365,0.110565 -4.470835,-0.0012 -5.074801,-0.01297 -5.25597704,-0.102302 -0.306203,-0.150988 -0.40497096,-0.355739 -0.46901796,-0.971479 -0.06468,-0.621832 -0.26389,-1.191421 -0.578008,-1.652576 -0.115906,-0.17016 -0.589533,-0.783916 -1.052533,-1.364162 -0.462997,-0.580246 -1.000844,-1.285468 -1.195363,-1.566799 -0.53548,-0.774462 -1.445422,-2.39229 -2.249864,-4.000808 -1.143632,-2.286745 -1.485672,-3.2850947 -1.426331,-4.1605557 0.06509,-0.960281 0.640768,-1.558203 1.669496,-1.734418 0.826736,-0.141614 1.725572,0.291954 2.682287,1.293337 0.270311,0.282931 0.505707,0.514267 0.522923,0.514267 0.01721,0 0.03148,-1.98073 0.03148,-4.401754 0,-4.12566302 0.0073,-4.42457102 0.11922,-4.76374702 0.291796,-0.88449298 0.990366,-1.46950898 1.971681,-1.65139498 0.120614,-0.02236 0.24393,-0.03189 0.368289,-0.02951 z"
         style="opacity:0.75;vector-effect:none;fill:#ff7f2a;fill-opacity:1;stroke:none;stroke-width:0.20145686;stroke-linecap:round;stroke-linejoin:round;stroke-miterlimit:4;stroke-dasharray:none;stroke-dashoffset:0;stroke-opacity:1;paint-order:markers fill stroke" />
      <path
         inkscape:connector-curvature="0"
         id="rect986"
         d="m 0.3839895,-0.39509672 c -0.353422,0.0053 -0.52498604,0.09451 -0.68424404,0.355698 -0.12074096,0.19802 -0.12453296,0.382758 -0.12827196,6.59771202 -0.0029,4.7787747 -0.02323,6.4498147 -0.08027,6.6154177 -0.207871,0.603537 -1.13108,0.686654 -1.420033,0.127878 -0.05455,-0.10549 -0.12267,-0.447096 -0.151488,-0.759398 -0.04671,-0.506177 -0.08556,-0.629399 -0.358057,-1.133982 -0.753951,-1.396094 -1.982054,-2.7078637 -2.535131,-2.7078637 -0.232945,0 -0.374976,0.211733 -0.374976,0.559909 0,0.467587 0.597664,1.8550067 1.636837,3.7997437 1.198014,2.241996 1.745698,3.104931 2.832592,4.463529 0.436122,0.545146 0.950419,1.231415 1.143032,1.525091 0.35983,0.548633 0.738763,1.391536 0.816058,1.815866 l 0.04368,0.240017 h 4.17118 4.1711805 l 0.04092,-0.559515 c 0.06349,-0.869177 0.316231,-2.250434 0.768842,-4.204232 0.513272,-2.215662 0.530068,-2.302961 0.648045,-3.324431 0.06445,-0.558042 0.09617,-1.450122 0.09601,-2.717307 -2.01e-4,-1.7794757 -0.0077,-1.8987457 -0.129452,-2.0983777 -0.133431,-0.218852 -0.456116,-0.395437 -0.722019,-0.395437 -0.221178,0 -0.569626,0.25558 -0.698804,0.512691 -0.0857,0.170584 -0.112062,0.383228 -0.112139,0.910884 -1.27e-4,0.687675 -1.13e-4,0.688381 -0.207752,0.9132447 C 8.8983715,10.41428 8.5927975,10.48281 8.2565525,10.342318 7.8122205,10.156663 7.7950205,10.084494 7.7592055,8.2667603 l -0.03227,-1.62267 -0.238835,-0.21877 c -0.203647,-0.186509 -0.284816,-0.218771 -0.55086,-0.218771 -0.330488,0 -0.575292,0.135819 -0.729101,0.404488 -0.05197,0.09078 -0.09046,0.554205 -0.111351,1.337012 l -0.03227,1.197725 -0.208933,0.208933 c -0.184996,0.184843 -0.249283,0.208539 -0.558334,0.208539 -0.309061,0 -0.372941,-0.02407 -0.557941,-0.208933 l -0.209328,-0.208539 -0.03187,-1.613622 c -0.02308,-1.164647 -0.05544,-1.654068 -0.116073,-1.760387 -0.128359,-0.225049 -0.457658,-0.395955 -0.76412,-0.396225 -0.221442,-1.91e-4 -0.317559,0.04076 -0.511511,0.218377 l -0.238837,0.218768 -0.03187,1.204021 c -0.02092,0.787733 -0.05932,1.252028 -0.111353,1.342914 -0.217962,0.380735 -0.703212,0.515805 -1.105652,0.307695 -0.391376,-0.20239 -0.381557,-0.08855 -0.381666,-4.423789 -6.4e-5,-3.63556602 -0.0089,-3.96867702 -0.111746,-4.17039302 -0.163728,-0.321092 -0.404667,-0.473319 -0.741299,-0.46823 z"
         style="opacity:1;vector-effect:none;fill:#ffccaa;fill-opacity:1;stroke:none;stroke-width:0.20145686;stroke-linecap:round;stroke-linejoin:round;stroke-miterlimit:4;stroke-dasharray:none;stroke-dashoffset:0;stroke-opacity:1;paint-order:markers fill stroke" />
    </g>
    <path
       style="fill:#000000;stroke-width:0.31738281"
       d="m -272.40187,82.627327 c -1.51994,-0.749478 -2.01077,-1.765909 -2.32869,-4.822347 -0.32107,-3.086677 -1.30965,-5.913038 -2.86888,-8.202139 -0.57534,-0.844648 -2.92645,-3.892291 -5.22471,-6.77254 -2.29824,-2.880249 -4.96863,-6.379395 -5.93419,-7.775879 -2.65804,-3.844306 -7.17366,-11.875103 -11.16678,-19.859532 -5.67681,-11.35104 -7.37595,-16.30638 -7.08139,-20.65203 0.32309,-4.7666799 3.18059,-7.7356799 8.28703,-8.6103799 4.10379,-0.70295 8.56729,1.44882 13.31627,6.4195299 1.34178,1.40442 2.5095,2.55349 2.59496,2.55349 0.0854,0 0.15536,-9.8325699 0.15536,-21.8501499 0,-20.4791401 0.0372,-21.9628601 0.59262,-23.6464801 1.44843,-4.39048 4.91585,-7.29486 9.78694,-8.19771 4.78963,-0.88776 10.44079,2.30344 12.68741,7.16457 l 0.89543,1.93748 0.0962,9.93974 0.0962,9.9397401 1.01467,-0.2595701 c 0.55807,-0.14275 2.17705,-0.25129 3.59772,-0.24119 2.25504,0.016 2.85069,0.15013 4.6908,1.0560101 1.15927,0.57071 2.81368,1.74357 3.67649,2.60638 l 1.56872,1.56872 1.99243,-0.67411 c 1.57483,-0.53282 2.52761,-0.64657 4.54589,-0.54271 4.64436,0.239 8.46359,2.73333 10.34667,6.75738997 l 0.93779,2.00402003 1.1743,-0.33205 c 0.64586,-0.18262 2.17405,-0.33437 3.39598,-0.33723 5.0198,-0.0117 9.45777,3.11539 11.26752,7.93942 0.67157,1.7901199 0.68494,2.1237399 0.54446,13.5783699 -0.17032,13.888282 -0.43832,15.907389 -4.14946,31.262208 -2.67975,11.08746 -3.3368,15.201681 -3.78951,23.728631 -0.12115,2.281947 -0.77568,3.417305 -2.46735,4.27991 -1.00924,0.51462 -2.90935,0.554436 -26.16152,0.548193 -22.19253,-0.006 -25.18999,-0.0643 -26.08932,-0.507755 z m 47.30308,-10.513579 c 0.31518,-4.314457 1.56844,-11.169577 3.81513,-20.86792 2.5478,-10.9982 2.63231,-11.431545 3.21793,-16.501958 0.31993,-2.77003 0.47593,-7.19866 0.47513,-13.48877 -0.001,-8.83304 -0.0376,-9.42439 -0.64171,-10.41533 -0.66233,-1.0863499 -2.26474,-1.9645499 -3.58464,-1.9645499 -1.0979,0 -2.82729,1.2691299 -3.4685,2.5453899 -0.42542,0.84675 -0.55504,1.90184 -0.55542,4.52104 -6.4e-4,3.41351 -0.001,3.41752 -1.03199,4.53371 -1.2477,1.35135 -2.76471,1.69148 -4.43377,0.9941 -2.2056,-0.92156 -2.29153,-1.2801 -2.46931,-10.30304 l -0.15869,-8.0542399 -1.18552,-1.08576 c -1.01086,-0.9258 -1.41371,-1.08577003 -2.7343,-1.08577003 -1.64049,0 -2.85655,0.67463003 -3.62003,2.00826003 -0.25796,0.45061 -0.4497,2.74945 -0.55341,6.63518 l -0.15869,5.9456699 -1.0376,1.03675 c -0.91828,0.91753 -1.23691,1.03674 -2.77099,1.03674 -1.53413,0 -1.85268,-0.11919 -2.771,-1.03684 l -1.0376,-1.03684 -0.15869,-8.0085699 c -0.11455,-5.78112 -0.27467,-8.21191003 -0.57567,-8.73966 -0.63715,-1.11711 -2.27177,-1.96414 -3.79301,-1.96548 -1.09919,-9.5e-4 -1.5763,0.20282 -2.53906,1.0845 l -1.18552,1.08568 -0.15869,5.97609 c -0.10383,3.91018 -0.29515,6.2144399 -0.55342,6.6655799 -1.08193,1.88991 -3.48959,2.55984 -5.48724,1.52681 -1.94273,-1.00463 -1.89387,-0.43819 -1.8944,-21.9576299 -3.2e-4,-18.0463701 -0.0448,-19.7011301 -0.55542,-20.7024201 -0.81273,-1.59385 -2.00875,-2.34919 -3.67973,-2.32393 -1.75434,0.0265 -2.60681,0.4697 -3.39734,1.7662 -0.59934,0.98294 -0.61714,1.89947 -0.6357,32.7495201 -0.0143,23.7210799 -0.11479,32.0160999 -0.39792,32.8381279 -1.03184,2.995862 -5.61504,3.408777 -7.04936,0.635102 -0.27078,-0.523634 -0.60936,-2.22042 -0.75241,-3.77063 -0.23185,-2.51258 -0.42481,-3.12359 -1.77743,-5.62826 -3.74249,-6.92999 -9.83908,-13.44202 -12.58447,-13.44202 -1.1563,0 -1.86016,1.05205 -1.86016,2.78034 0,2.32103 2.96628,9.20692 8.12457,18.86029 5.94675,11.128909 8.66586,15.41373 14.06103,22.157594 2.16484,2.706022 4.71834,6.112755 5.67444,7.570516 1.78614,2.723326 3.66577,6.907034 4.04946,9.013342 l 0.2168,1.190186 h 20.70573 20.70573 z"
       id="path984"
       inkscape:connector-curvature="0" />
  </g>
  <g
     inkscape:groupmode="layer"
     id="layer3"
     inkscape:label="vincenzo"
     style="display:none">
    <image
       sodipodi:absref="/home/daniele/hack/git/naso-gogol/resources/../../../../Downloads/Nevskij-icon-02.png"
       xlink:href="../../../../Downloads/Nevskij-icon-02.png"
       width="140.48317"
       height="140.48317"
       preserveAspectRatio="none"
       id="image90"
       x="-71.432701"
       y="-64.16906" />
    <image
       sodipodi:absref="/home/daniele/hack/git/naso-gogol/resources/../../../../Downloads/Kazan-icon-02.png"
       xlink:href="../../../../Downloads/Kazan-icon-02.png"
       width="154.37878"
       height="147.8373"
       preserveAspectRatio="none"
       id="image68"
       x="-77.367348"
       y="-73.669762" />
    <image
       sodipodi:absref="/home/daniele/hack/git/naso-gogol/resources/../naso-ng/src/assets/Torta-icon.png"
       xlink:href="../naso-ng/src/assets/Torta-icon.png"
       y="-65.815506"
       x="-63.735977"
       id="location-torta"
       preserveAspectRatio="none"
       height="132.93289"
       width="132.93289"
       inkscape:label="#image967" />
    <image
       sodipodi:absref="/home/daniele/hack/git/naso-gogol/resources/../naso-ng/src/assets/Polizia-icon.png"
       xlink:href="../naso-ng/src/assets/Polizia-icon.png"
       y="-69.052467"
       x="-63.357803"
       id="location-capitano"
       preserveAspectRatio="none"
       height="139.72"
       width="137.65979"
       inkscape:label="#image956" />
    <image
       sodipodi:absref="/home/daniele/hack/git/naso-gogol/resources/../naso-ng/src/assets/Palazzo-di-Tauride-icon.png"
       xlink:href="../naso-ng/src/assets/Palazzo-di-Tauride-icon.png"
       y="-66.047112"
       x="-64.292435"
       id="location-tauride"
       preserveAspectRatio="none"
       height="132.42538"
       width="132.42538"
       inkscape:label="#image945" />
    <image
       sodipodi:absref="/home/daniele/hack/git/naso-gogol/resources/../naso-ng/src/assets/Giornale-icon.png"
       xlink:href="../naso-ng/src/assets/Giornale-icon.png"
       y="-69.385002"
       x="-65.510002"
       id="location-giornale"
       preserveAspectRatio="none"
       height="139.52"
       width="139.52"
       inkscape:label="#image934" />
    <image
       sodipodi:absref="/home/daniele/hack/git/naso-gogol/resources/../naso-ng/src/assets/esculapio-icon_2.png"
       xlink:href="../naso-ng/src/assets/esculapio-icon_2.png"
       y="-72.072189"
       x="-75.120811"
       id="location-medico"
       preserveAspectRatio="none"
       height="149.17531"
       width="149.17531"
       inkscape:label="#image923" />
    <image
       sodipodi:absref="/home/daniele/hack/git/naso-gogol/resources/../naso-ng/src/assets/Due-lettere-icon.png"
       xlink:href="../naso-ng/src/assets/Due-lettere-icon.png"
       y="-61.674915"
       x="-69.752647"
       id="location-lettere"
       preserveAspectRatio="none"
       height="134.97273"
       width="149.27946"
       inkscape:label="#image912" />
    <image
       sodipodi:absref="/home/daniele/hack/git/naso-gogol/resources/../naso-ng/src/assets/Casa di Kovalev-icon.png"
       xlink:href="../naso-ng/src/assets/Casa di Kovalev-icon.png"
       y="-66.797112"
       x="-63.417435"
       id="location-casa"
       preserveAspectRatio="none"
       height="129.7"
       width="129.7"
       inkscape:label="#image901" />
  </g>
  <g
     inkscape:groupmode="layer"
     id="layer16"
     inkscape:label="locations mask"
     sodipodi:insensitive="true"
     style="display:none">
    <circle
       style="display:inline;opacity:0.75;vector-effect:none;fill:#000000;fill-opacity:1;stroke:none;stroke-width:2.01438856;stroke-linecap:round;stroke-linejoin:round;stroke-miterlimit:4;stroke-dasharray:none;stroke-dashoffset:0;stroke-opacity:1;paint-order:markers fill stroke"
       id="path93"
       cx="0"
       cy="0"
       r="50" />
  </g>
  <g
     inkscape:groupmode="layer"
     id="layer10"
     inkscape:label="labels"
     style="display:none">
    <g
       id="labels"
       inkscape:label="#g898"
       style="stroke:#ff2a2a">
      <path
         sodipodi:nodetypes="ccccccccccccccccscccccscccccscscccccscscscccccccccccccccccccccccccccccsccscccsccscccccccccccccsscccccccccccsccccccccccccsccccsccscscscsccccccccccsccccscccscscccccccscsccccsscccsccccccccsccccccccccscccccccscccccccccccccccccccssscsccccccssscsccccsccccsscccccccccccccccccccccsscccccsccscccccccccsccccscccscccccccccccccccccccccccccccccccccccccscccccscccscccccccsccccccccccsccsccccsscccccccsccsccccccccccccccccccccccscccccccccccssccssssscccccscccccsccccccccssscccsccccccccsscccccccccccccssccccccccsscccccccccsccssccccscscsscsccsccccccccsccccccscccscscscccccssscccccc"
         inkscape:connector-curvature="0"
         id="path876"
         d="m -17.316878,13.120363 c -0.792934,-0.41155 -1.311193,-1.281784 -1.313108,-2.204889 -7.49e-4,-0.360454 -0.182165,-0.563983 -0.313417,-0.35161 -0.04387,0.07104 -0.277319,0.211591 -0.518773,0.312485 -0.504747,0.210899 -0.551169,0.633512 -0.06763,0.6157 0.174188,-0.0071 0.237213,0.0341 0.165095,0.1062 -0.155612,0.155576 -0.60071,0.0054 -0.692455,-0.233703 -0.106897,-0.278546 0.216466,-0.811093 0.742544,-1.222927 0.511887,-0.4007149 0.808092,-0.9876439 0.810979,-1.6069489 0.0014,-0.305576 0.03204,-0.363011 0.119667,-0.224431 0.09823,0.155398 0.186061,0.121475 0.529862,-0.204949 0.22666,-0.215161 0.608274,-0.490226 0.848029,-0.611241 0.966371,-0.487812 2.912869,-0.156288 3.82819,0.651893 l 0.490615,0.433217 -0.500497,-0.06803 -0.500498,-0.06802 0.563059,0.3241 c 1.497238,0.861815 4.0266169,2.0590789 4.7547229,2.2506009 1.505329,0.395956 2.76995,0.272685 3.667216,-0.357435 0.188361,-0.132311 0.25216,-0.124137 0.380594,0.04831 0.119826,0.160903 0.209041,0.177793 0.399325,0.0753 0.355018,-0.191043 0.357705,-0.196602 0.191613,-0.396738 -0.187272,-0.22564 0.02559,-0.6992059 0.314277,-0.6992059 0.164581,0 0.889528,-0.316499 1.044838,-0.456163 0.02994,-0.027 0.09329,-0.28723 0.140747,-0.578439 l 0.08628,-0.52944 0.01563,0.544145 c 0.02948,1.024568 -0.647451,1.8906109 -1.940481,2.4825819 -1.303589,0.596802 -2.785676,0.612271 -4.61208,0.04812 -0.876439,-0.270706 -2.5758099,-1.036512 -3.0522569,-1.3754769 -0.179798,-0.127872 -0.805505,-0.478043 -1.390462,-0.778078 -1.038784,-0.532814 -1.091708,-0.54553 -2.272303,-0.545744 -1.143503,-2.48e-4 -1.237868,0.02025 -1.748246,0.378642 -0.846326,0.594351 -1.267087,1.2836829 -1.278816,2.0951139 -0.01652,1.138088 0.528534,1.694576 1.769795,1.807121 0.983097,0.08915 1.769082,-0.242778 2.068371,-0.873484 0.115475,-0.243346 0.209958,-0.548106 0.209958,-0.67722 0,-0.661751 -0.920548,-1.140913 -1.384772,-0.720802 -0.21813,0.197401 -0.241845,0.198803 -0.241845,0.01421 0,-0.231979 0.427441,-0.374005 0.94222,-0.31307 0.517903,0.06128 0.79332,0.537254 0.833324,1.440113 0.03053,0.688941 3.76e-4,0.803473 -0.276296,1.048151 -0.701009,0.620051 -2.043435,0.821412 -2.813052,0.421957 z m 32.014678,-0.210544 -0.60848,-0.406931 10e-4,-0.918933 c 10e-4,-0.812904 0.0352,-0.946422 0.29539,-1.157126 0.55023,-0.4455599 1.52102,-0.211734 1.51576,0.365072 -0.004,0.462307 -0.50471,0.754422 -0.76181,0.444637 -0.13398,-0.161438 -0.10454,-0.182785 0.20537,-0.149007 0.42911,0.04689 0.55789,-0.25592 0.24286,-0.570943 -0.30419,-0.304192 -0.66135,-0.246277 -1.08327,0.175645 -0.30363,0.30364 -0.3625,0.445986 -0.29754,0.71947 0.20162,0.848833 0.97374,1.388485 2.00089,1.398483 1.66009,0.01599 2.49211,-1.244683 1.81253,-2.746725 -0.27698,-0.6121649 -0.65922,-0.9875369 -1.41633,-1.3908459 -0.40484,-0.215658 -0.66045,-0.252528 -1.50149,-0.216564 -1.091,0.04671 -1.40627,0.175113 -4.26683,1.7380159 -3.2267301,1.763006 -6.3183601,1.873543 -8.0104601,0.286397 -0.74305,-0.6969329 -1.11107,-1.6547229 -0.81735,-2.1271369 0.11855,-0.19067 0.12956,-0.161436 0.0654,0.17387 -0.0624,0.325929 -0.0162,0.464225 0.24161,0.721939 0.17533,0.17529 0.48788,0.352604 0.69455,0.393949 0.48498,0.09698 0.67909,0.339356 0.58191,0.7265389 -0.0576,0.229582 -0.0149,0.343015 0.16549,0.439557 0.32796,0.175468 0.34512,0.169962 0.42548,-0.137283 0.0696,-0.266114 0.0718,-0.26583 0.45127,0.05346 1.02436,0.86194 3.15916,0.686294 5.4805701,-0.450924 0.65119,-0.3190199 2.89775,-1.5587659 3.09892,-1.7101159 0.35397,-0.266326 1.65093,-0.627918 2.25223,-0.627918 0.73851,0 1.85199,0.359833 2.36698,0.764918 l 0.3232,0.254232 v -0.333867 c 0,-0.18362 0.0961,-0.496495 0.21346,-0.695246 0.63629,-1.077137 3.00871,-0.944097 3.48484,0.195412 0.17399,0.416415 0.16839,0.466748 -0.0908,0.817326 -0.20815,0.28153 -0.37651,0.37358 -0.68323,0.37358 -0.53081,0 -0.62655,-0.17387 -0.20224,-0.367115 0.23469,-0.106912 0.35048,-0.112425 0.38187,-0.01829 0.0248,0.07441 0.0967,0.135152 0.15975,0.135152 0.20013,0 0.12371,-0.586768 -0.11476,-0.88128 -0.29919,-0.369476 -1.45186,-0.492712 -1.83509,-0.196193 -0.24929,0.19289 -0.24925,0.193653 0.0105,0.197613 0.38634,0.0054 0.45844,0.14652 0.17646,0.343957 -0.49626,0.347578 -0.17083,1.242427 0.58169,1.5995249 0.68972,0.327296 2.05748,0.327261 2.43031,-7.2e-5 0.15677,-0.1376379 0.24389,-0.1798719 0.19359,-0.09377 -0.27355,0.467814 0.81106,-0.08383 1.178,-0.5991819 0.24193,-0.339764 0.25246,-0.408424 0.0915,-0.596216 -0.32989,-0.384804 -0.41409,-0.6103 -0.13753,-0.368375 0.51588,0.45126 0.4286,-0.186462 -0.0942,-0.688462 -0.32412,-0.311206 -1.31146,-0.301882 -1.4805,0.01421 -0.0869,0.162325 -0.0787,0.292469 0.0269,0.429291 0.242,0.31348 0.83974,0.331933 0.83974,0.02593 0,-0.103187 0.0563,-0.187686 0.12512,-0.187686 0.2039,0 0.14275,0.320636 -0.1037,0.543665 -0.26766,0.242226 -0.78271,0.271619 -0.9974,0.05701 -0.2438,-0.243807 -0.17957,-0.910566 0.11324,-1.175543 0.25136,-0.227504 0.79205,-0.290623 2.64156,-0.3084 0.18695,-0.0018 0.75001,0.166587 1.25125,0.374093 0.60998,0.252564 1.04955,0.359283 1.32929,0.322679 0.25334,-0.03304 0.53633,0.02291 0.71855,0.142258 0.18723,0.122725 0.47226,0.176887 0.75571,0.143855 l 0.45508,-0.0531 -0.29642,0.240025 c -0.4456,0.360827 -1.41006,0.245157 -2.20401,-0.26432 -0.34075,-0.218643 -0.64424,-0.397538 -0.67444,-0.397538 -0.0302,0 -0.0339,0.220329 -0.008,0.489623 0.0457,0.479427 -0.15176,0.737122 -0.54058,0.705421 -0.38838,-0.03161 -0.60786,-0.574763 -0.30733,-0.760495 0.21238,-0.131245 0.5225,0.194861 0.36536,0.384217 -0.08,0.09644 -0.0863,0.18868 -0.0158,0.232264 0.0644,0.03977 0.18939,-0.01421 0.27785,-0.121475 0.20557,-0.247696 0.01,-0.866184 -0.27529,-0.868901 -0.10924,-9.95e-4 -0.27665,-0.06446 -0.372,-0.141014 -0.26578,-0.213402 -0.70995,-0.320227 -0.97793,-0.235176 -0.22549,0.07157 -0.2294,0.105675 -0.059,0.51351 0.36167,0.86558 -0.21891,1.95101 -1.30473,2.4392829 -1.2501,0.562153 -2.94534,0.381748 -3.84631,-0.4093119 -0.37613,-0.330245 -0.42933,-0.450764 -0.42933,-0.972726 0,-0.712029 0.32419,-1.196519 0.91503,-1.367458 0.3829,-0.110825 0.37473,-0.1158 -0.20519,-0.126627 -0.79939,-0.01421 -1.33589,0.467049 -1.33463,1.19904 10e-4,0.569364 0.23384,0.951822 1.03212,1.6952149 0.33668,0.313533 0.59367,0.664309 0.59367,0.81033 0,0.305204 -0.3006,0.588669 -0.52757,0.49749 -0.10097,-0.04049 -0.0793,-0.0682 0.0584,-0.07441 0.14556,-0.0071 0.21896,-0.111538 0.21896,-0.313 0,-0.235462 -0.0977,-0.33536 -0.43793,-0.447638 -0.24086,-0.07956 -0.43794,-0.194702 -0.43794,-0.256027 0,-0.06128 -0.0845,-0.07904 -0.18768,-0.03943 -0.12292,0.04724 -0.18769,0.242262 -0.18769,0.56535 0,0.78932 -0.55299,1.680492 -1.27631,2.056823 -0.18583,0.09661 -0.67214,0.175823 -1.0807,0.175823 -0.63,0 -0.83523,-0.0618 -1.3513,-0.406914 z M -8.4956161,12.114461 c -0.722592,-0.163746 -1.5812929,-0.284087 -1.9082239,-0.267268 -0.630154,0.0325 -0.799224,-0.167298 -0.393012,-0.464333 0.16895,-0.123612 0.03747,-0.211875 -0.818813,-0.550254 -0.964832,-0.381268 -1.940742,-0.528657 -2.247001,-0.339391 -0.215407,0.133199 -0.163,-0.253558 0.05939,-0.438118 0.172342,-0.1429669 0.128049,-0.1850219 -0.34409,-0.3262309 -0.898959,-0.26885 -1.592855,-0.215996 -1.929223,0.146874 -0.159449,0.1720919 -0.403757,0.3128219 -0.542913,0.3128219 -0.151332,0 -0.326771,0.142612 -0.436544,0.354914 -0.160372,0.310123 -0.16071,0.400912 -0.0027,0.71947 l 0.180843,0.364539 -0.313334,-0.35106 c -0.36355,-0.40734 -0.384016,-0.588242 -0.123537,-1.091965 0.301218,-0.5824889 0.853688,-0.8085359 1.937309,-0.7926409 1.031946,0.01599 1.927577,0.301101 3.619389,1.1557059 2.0188539,1.01979 3.7997229,1.52092 5.5146819,1.551786 1.236842,0.0222 2.069388,-0.212266 3.128107,-0.881208 0.691486,-0.436912 2.49108902,-2.2238919 2.49851202,-2.4809839 0.0021,-0.07565 -0.161828,-0.366528 -0.364485,-0.646282 -0.37490302,-0.517522 -0.74598302,-0.726538 -1.19559302,-0.673401 -0.207089,0.02451 -0.21788,0.0071 -0.06257,-0.09928 0.394925,-0.271034 1.114889,-0.03179 1.78161902,0.591901 l 0.342691,0.320583 0.470613,-0.37713 c 0.25884,-0.207418 0.59361,-0.442576 0.74392998,-0.522568 0.32207,-0.171382 0.87195,-0.191788 0.96827,-0.03588 0.0372,0.0602 -0.0847,0.109575 -0.27103,0.109575 -0.24484,0 -0.48693,0.163747 -0.87358998,0.5908 -0.29419,0.324953 -0.53489,0.636497 -0.53489,0.692352 0,0.05595 0.48684,0.614456 1.08185998,1.241343 1.70131,1.7924519 3.23486,2.4060909 5.34455,2.1386089 1.7416,-0.220826 2.66706,-0.531571 5.3919501,-1.810477 2.29675,-1.0779529 3.8377,-1.2042269 4.66007,-0.3818549 0.25857,0.2585659 0.41335,0.5368099 0.41335,0.7430739 0,0.363047 -0.32936,0.94653 -0.53429,0.94653 -0.0716,0 -0.0369,-0.103013 0.077,-0.228819 0.41702,-0.46078 0.15103,-1.032754 -0.56312,-1.210957 -0.18275,-0.04565 -0.36047,-0.1907409 -0.39494,-0.3225549 -0.0504,-0.192783 -0.17648,-0.239652 -0.6446,-0.239652 -0.81659,0 -1.74763,0.246401 -1.57673,0.417304 0.29583,0.2958259 0.13382,0.4442459 -0.47975,0.4394859 -0.79528,-0.0054 -2.87691,0.752398 -2.61151,0.951645 0.096,0.0721 0.20587,0.215445 0.24425,0.318684 0.0576,0.154866 -0.0856,0.190404 -0.8210601,0.203244 -0.48997,0.0089 -1.22868,0.110462 -1.64159,0.22658 -0.41291,0.115975 -1.28565,0.242653 -1.93943,0.281316 -1.36963,0.08099 -1.84165,-0.02949 -3.52192,-0.824715 -0.65553,-0.310228 -1.26328,-0.512051 -1.54194,-0.512051 -0.36814998,0 -0.45165998,-0.04316 -0.41838998,-0.215818 0.0229,-0.118637 0.16786998,-0.278795 0.32222998,-0.355766 0.27507,-0.137106 0.27591,-0.14421 0.0422,-0.355767 -0.19957,-0.1806169 -0.27979998,-0.1900659 -0.49146998,-0.0579 -0.18548,0.1158 -0.33055,0.1229 -0.54377,0.02629 -0.19853,-0.08986 -0.380464,-0.09129 -0.573395,-0.0054 -0.196731,0.08844 -0.377656,0.08365 -0.595451,-0.01599 -0.25457702,-0.1159749 -0.35815302,-0.1037119 -0.55603802,0.06571 -0.239821,0.20534 -0.239389,0.2101 0.03129,0.345056 0.150959,0.0753 0.293173,0.233952 0.316034,0.352659 0.03309,0.171738 -0.04951,0.215818 -0.404767,0.215818 -0.267139,0 -0.919033,0.222371 -1.623732,0.55386 -0.64757,0.304616 -1.393975,0.613976 -1.658675,0.687483 -0.757379,0.210295 -2.24142,0.133022 -3.671946,-0.19138 z m -7.3717809,-0.839207 c -0.186572,-0.186585 -0.171276,-0.372975 0.02073,-0.252546 0.08603,0.05399 0.254939,0.08187 0.375372,0.06216 0.12043,-0.01989 0.218967,0.01776 0.218967,0.08241 0,0.1806 -0.46146,0.261691 -0.61507,0.108162 z m 7.9586969,-0.585295 c -1.397812,-0.24933 -3.1892739,-1.0364299 -3.1155669,-1.3688599 0.02451,-0.110463 -0.03683,-0.136218 -0.187686,-0.07885 -0.170886,0.065 -0.18954,0.05044 -0.07859,-0.06127 0.163337,-0.164634 0.462375,-0.04191 0.348156,0.142967 -0.121762,0.19701 1.4513449,0.8446759 2.3216359,0.9558539 0.764285,0.09767 1.646532,0.03871 2.240319,-0.149894 0.202658,-0.06429 0.243882,-0.03907 0.185431,0.113125 -0.105583,0.275137 0.255865,0.252618 0.892627,-0.05559 0.57878,-0.2801799 0.880368,-0.7199149 0.773647,-1.1280189 -0.06163,-0.235638 -0.0312,-0.259951 0.240065,-0.191878 0.280697,0.0705 0.297592,0.05364 0.175344,-0.174757 -0.162716,-0.304044 -0.623818,-0.438131 -1.146871,-0.333525 -0.308022,0.06162 -0.36976,0.03979 -0.312135,-0.110463 0.124141,-0.323478 -0.38096,-0.214752 -0.661974,0.142434 -0.314784,0.400184 -0.318843,0.473834 -0.04383,0.795003 0.243446,0.284336 0.538315,0.323692 0.760476,0.101587 0.08258,-0.08259 0.150142,-0.114725 0.150142,-0.07158 0,0.147763 -0.392901,0.471898 -0.571997,0.471898 -0.288247,0 -0.679245,-0.473709 -0.679245,-0.822922 0,-0.189551 0.150746,-0.473176 0.365748,-0.688195 0.299977,-0.299965 0.47098,-0.365747 0.950944,-0.365747 0.502801,0 0.647323,0.06216 1.026453,0.441262 0.390867,0.390859 0.432929,0.494453 0.368352,0.907157 -0.0874,0.55853 -0.719885,1.1690959 -1.425813,1.3764249 -0.697248,0.204754 -1.890584,0.276042 -2.575632,0.153801 z m 13.77617,-0.0071 c -1.23329,-0.188113 -2.10091,-0.7858739 -2.10091,-1.4474829 0,-0.246862 0.21302,-0.423485 0.51073,-0.423485 0.0632,0 0.11489,0.156465 0.11489,0.347526 0,0.473335 0.30413,0.8705889 0.83696,1.0932269 0.57248,0.23919 0.78966,0.235016 0.78966,-0.01599 0,-0.141014 0.0654,-0.17529 0.21896,-0.114725 0.49761,0.196247 1.44201,0.269684 2.17645,0.169252 0.8331,-0.113838 2.5848701,-0.8401489 2.3607401,-0.9786759 -0.11838,-0.07318 0.17214,-0.268387 0.56163,-0.377415 0.22744,-0.06359 0.68818,-0.793013 0.68818,-1.089391 0,-0.419684 -0.55435,-0.660969 -0.84676,-0.368552 -0.18015,0.180156 -0.1874,0.251142 -0.0484,0.473743 0.13519,0.216477 0.13476,0.252369 -0.002,0.207152 -0.22311,-0.07353 -0.28406,-0.568174 -0.0977,-0.792729 0.36755,-0.442879 1.1204,-0.0325 1.1204,0.610709 0,0.433411 -0.80775,1.353887 -1.09226,1.244717 -0.12821,-0.0492 -0.16911,-0.02681 -0.11391,0.06251 0.21458,0.347187 -2.2254801,1.3218499 -3.6111101,1.4424209 -0.41291,0.03588 -1.07221,0.01599 -1.46513,-0.04369 z m -28.7286069,-0.17156 c -1.442673,-0.470548 -2.277914,-1.7616029 -1.762593,-2.7244889 0.105925,-0.197916 0.09864,-0.28414 -0.03128,-0.370543 -0.229043,-0.15238 -0.887083,-0.02149 -1.060577,0.210845 -0.07868,0.105313 -0.229339,0.154157 -0.342354,0.110825 -0.140746,-0.05399 -0.239185,0.02078 -0.325197,0.246987 -0.140588,0.369777 -0.06809,0.651095 0.193657,0.751543 0.135739,0.05204 0.161438,-0.0035 0.105313,-0.226935 -0.08315,-0.331292 0.07317,-0.487632 0.372672,-0.372708 0.275776,0.10585 0.248674,0.375958 -0.05937,0.591723 -0.519401,0.363793 -1.018585,-0.120062 -0.808079,-0.783352 0.08406,-0.264835 -0.1048,-0.364859 -0.248853,-0.131779 -0.04334,0.07015 -0.366656,0.273378 -0.718479,0.451651 -0.509211,0.258034 -0.764105,0.312202 -1.249752,0.265529 -0.687355,-0.06606 -1.124587,-0.335377 -0.516379,-0.31808 0.199929,0.0054 0.542681,-0.08241 0.761677,-0.195571 0.486052,-0.251356 0.472579,-0.251179 0.714473,-0.0089 0.108137,0.108162 0.196622,0.136217 0.196622,0.06251 0,-0.0737 0.05992,-0.134087 0.133147,-0.134087 0.07322,0 0.453293,-0.15167 0.844589,-0.337136 0.630002,-0.298543 0.88155,-0.340829 2.197378,-0.36928 l 1.485931,-0.03215 0.3632,0.36319 c 0.71069,0.710696 0.09957,1.591497 -0.778241,1.121695 -0.13311,-0.07121 -0.242023,-0.240149 -0.242023,-0.375373 0,-0.241977 0.0039,-0.241871 0.253115,0.0071 0.204129,0.204115 0.302363,0.226759 0.507565,0.116863 0.632904,-0.338717 0.364348,-0.870553 -0.439596,-0.870553 -0.562231,0 -0.985509,0.281654 -1.13604,0.755949 -0.125242,0.394606 0.02414,0.444121 0.320863,0.106375 0.144601,-0.164634 0.221903,-0.214788 0.171773,-0.111525 -0.05011,0.103187 -0.173692,0.283962 -0.27461,0.401621 -0.273898,0.31934 -0.1001,0.766108 0.444955,1.143843 0.566194,0.3923679 0.7774,0.4202699 0.691385,0.09129 -0.03452,-0.131955 -0.0021,-0.343174 0.07214,-0.469215 0.110663,-0.187989 0.122113,-0.160372 0.0637,0.153268 -0.105812,0.5682449 0.186183,0.7470339 1.189719,0.7284749 1.032303,-0.019 1.683552,-0.28526 2.010675,-0.8218039 0.318038,-0.521643 0.316602,-0.550094 -0.04609,-0.912786 -0.326208,-0.326195 -0.300735,-0.437674 0.101426,-0.443802 0.25611,-0.0035 0.256423,-0.0071 0.01779,-0.187686 -0.492604,-0.372584 -1.80037,-0.120237 -1.994192,0.384945 -0.115013,0.299734 -0.09429,0.682584 0.03697,0.682584 0.06309,0 0.136147,-0.06429 0.162379,-0.143145 0.03545,-0.106375 0.119062,-0.104788 0.325822,0.0054 0.152965,0.08187 0.333276,0.114725 0.400673,0.07318 0.0674,-0.04156 0.122544,-0.01421 0.122544,0.06074 0,0.187847 -0.477934,0.348343 -0.834371,0.280198 -0.441281,-0.08436 -0.743202,-0.79209 -0.543542,-1.274111 0.234286,-0.565617 1.074668,-0.922554 2.012365,-0.854729 0.410102,0.02966 0.804423,0.112775 0.876267,0.18456 0.09075,0.09075 -0.07214,0.115262 -0.53364,0.08045 l -0.664269,-0.05009 0.404192,0.185894 c 0.458141,0.210685 0.908449,0.863698 0.909145,1.318404 0.0018,1.1839609 -2.246201,2.1065699 -3.854613,1.5819599 z M -9.2083361,9.9319821 c -0.288766,-0.05684 -0.767366,-0.218766 -1.0635569,-0.359762 -0.296186,-0.141014 -0.401355,-0.221803 -0.233707,-0.179553 0.167653,0.04228 0.5815499,0.07069 0.9197839,0.06305 0.495754,-0.01063 0.601152,0.0222 0.543699,0.171917 -0.130837,0.340953 1.086545,0.276876 1.589379,-0.08365 l 0.354693,-0.254284 -0.135597,0.253344 c -0.07457,0.139415 -0.234187,0.280411 -0.354693,0.31348 -0.522245,0.143322 -1.13186,0.1717369 -1.620002,0.07566 z m 16.900766,-0.0035 c -0.215,-0.06234 -0.46838,-0.207843 -0.56306,-0.323371 -0.16028,-0.195555 -0.15058,-0.1963 0.14068,-0.01063 0.31453,0.200474 0.63898,0.25917 1.29096,0.233543 0.28701,-0.01062 0.33848,-0.05808 0.27695,-0.251943 -0.0673,-0.211999 -0.0305,-0.228267 0.33566,-0.148294 0.22618,0.04938 0.60792,0.04831 0.8483201,-0.0017 0.24039,-0.05079 0.45763,-0.07175 0.48274,-0.04671 0.12753,0.127516 -1.8266201,0.7080319 -2.2710801,0.6746619 -0.0826,-0.0071 -0.32616,-0.06234 -0.54116,-0.1246749 z M -22.63466,9.6968591 c 0,-0.07353 0.06335,-0.1197 0.140765,-0.102475 0.07741,0.01776 0.165132,-0.03481 0.194897,-0.115438 0.02976,-0.08081 -0.0758,-0.174047 -0.234608,-0.207525 -0.205137,-0.04316 -0.180055,-0.05505 0.08664,-0.04085 0.285341,0.01421 0.375373,0.07993 0.375373,0.270093 0,0.164278 -0.09674,0.264 -0.28153,0.290231 -0.154848,0.02202 -0.281529,-0.02025 -0.281529,-0.09378 z m 44.48866,0.0018 c -0.0387,-0.06269 -0.036,-0.203368 0.006,-0.312804 0.14325,-0.373313 1.05057,-0.1787 1.05057,0.225336 0,0.0682 -0.0735,0.02344 -0.1634,-0.09945 -0.0991,-0.135507 -0.28067,-0.206494 -0.46135,-0.180316 -0.28416,0.0412 -0.28775,0.05327 -0.0779,0.262119 0.20991,0.208891 0.20845,0.218978 -0.0318,0.218978 -0.13849,0 -0.28346,-0.05132 -0.32215,-0.113837 z M 5.3966699,9.5038301 c -0.0837,-0.100875 -0.12324,-0.25576 -0.0878,-0.344079 0.0406,-0.10105 0.0682,-0.07939 0.0744,0.05825 0.0138,0.307104 0.40785,0.273769 0.69243,-0.05861 0.16319,-0.190582 0.25434,-0.227522 0.29089,-0.117925 0.0711,0.213402 -0.332,0.645695 -0.60214,0.645695 -0.11855,0 -0.28406,-0.08259 -0.36781,-0.183477 z m -13.669797,-0.274639 c 0.4141,-0.204096 0.622609,-0.171205 0.470839,0.07441 -0.04536,0.07335 -0.262148,0.132133 -0.481746,0.130536 l -0.399268,-0.0035 0.410175,-0.202179 z m 15.918537,0.02806 c 0,-0.230187 0.1431,-0.252724 0.34194,-0.05381 0.17924,0.17925 0.53394,0.05079 0.53394,-0.193262 0,-0.101413 -0.12669,-0.276664 -0.28153,-0.389262 -0.24281,-0.176533 -0.24895,-0.199052 -0.0447,-0.163568 0.34841,0.06056 0.54538,0.426858 0.37552,0.698141 -0.18254,0.291527 -0.92517,0.373224 -0.92517,0.101761 z m -46.7130579,-0.02877 c -0.236874,-0.236864 -0.03791,-0.686419 0.552991,-1.249532 0.982979,-0.936745 1.280415,-1.670032 0.677396,-1.670032 -0.271486,0 -0.31281,0.05541 -0.31281,0.419666 0,0.864498 -1.168982,1.597696 -2.560126,1.605706 -1.425122,0.0089 -2.52688,-0.550307 -2.906465,-1.473448 -0.253569,-0.616658 -0.39679,-0.664823 -0.890797,-0.299592 -0.319043,0.235869 -0.42269,0.243968 -1.590267,0.124138 -1.310755,-0.134441 -3.844311,-0.490225 -3.902021,-0.547928 -0.02815,-0.02824 2.298225,-0.361075 4.608791,-0.65953 0.484224,-0.06251 0.622942,-0.03126 0.844589,0.19035 0.302777,0.302789 0.765702,0.353867 0.765702,0.08454 0,-0.09946 0.131051,-0.333069 0.291218,-0.519264 0.405345,-0.47124 1.293335,-0.501574 1.763199,-0.0602 0.17762,0.166766 0.322946,0.406134 0.322946,0.531785 0,0.323105 0.230514,0.283518 0.390225,-0.06695 0.162396,-0.356441 0.75085,-0.654931 1.51784,-0.769961 0.434384,-0.06518 0.7006,-0.0254 1.143379,0.170494 0.666483,0.294813 0.793075,0.471951 0.143251,0.20042 -0.238654,-0.09964 -0.61872,-0.17909 -0.844589,-0.176355 l -0.410674,0.0054 0.390603,0.169962 c 0.214829,0.09341 0.469764,0.283021 0.566524,0.421175 0.269895,0.385319 0.938532,0.431636 0.807696,0.05594 -0.0726,-0.208483 -0.06809,-0.208483 0.09429,3.6e-5 0.160053,0.205552 0.966338,0.221926 13.107075,0.266237 7.115094,0.02593 13.218063,0.06358 13.562155,0.08347 0.670354,0.0389 2.9695749,0.02752 3.6911659,-0.01811 0.982958,-0.06216 39.0498411,-0.04475 39.9440311,0.01811 0.5323,0.03748 0.98275,0.02593 1.00099,-0.02575 0.0352,-0.09981 3.70089,-0.17014 3.79814,-0.073 0.11448,0.11455 0.69931,-0.06997 0.76503,-0.241161 0.0371,-0.09679 0.27182,-0.288846 0.5215,-0.426805 l 0.45398,-0.25084 -0.60214,0.05346 c -0.40655,0.03605 -0.70346,0.14865 -0.91409,0.346565 -0.22112,0.207737 -0.28847,0.231856 -0.23128,0.08276 0.0962,-0.250769 1.02243,-0.722276 1.4188,-0.722276 0.86277,0 1.60684,0.379582 2.0709,1.056482 0.15705,0.229084 0.17192,0.219494 0.25648,-0.165522 0.094,-0.427943 0.66974,-0.889628 1.11053,-0.890516 0.49278,-9.94e-4 1.06841,0.391126 1.21174,0.825443 0.0787,0.238303 0.19826,0.392334 0.27017,0.347899 0.071,-0.04386 0.17818,-0.0018 0.23825,0.0927 0.0887,0.140125 0.10957,0.134975 0.11114,-0.02717 10e-4,-0.109762 0.11141,-0.29865 0.2452,-0.419755 0.25829,-0.233737 0.16039,-0.242031 4.94937,0.419045 L 50,6.1328771 48.99901,6.2884531 c -3.44016,0.534625 -4.81729,0.575117 -4.81729,0.141724 0,-0.06642 -0.10997,-0.120763 -0.24439,-0.120763 -0.16803,0 -0.31949,0.169785 -0.48472,0.54331 -0.54015,1.221081 -2.27856,1.805185 -3.96626,1.332649 -0.8006,-0.224148 -1.56084,-0.945608 -1.56084,-1.48121 0,-0.33765 -0.0453,-0.394749 -0.31281,-0.394749 -0.17204,0 -0.31281,0.04795 -0.31281,0.106388 0,0.398762 0.36685,0.963757 0.94831,1.460518 0.52817,0.451225 0.6783,0.658803 0.6783,0.93781 0,0.197064 -0.0441,0.385584 -0.0981,0.418902 -0.0539,0.03339 -0.0961,-0.08419 -0.0938,-0.261194 0.003,-0.257376 -0.0834,-0.35177 -0.43373,-0.471578 -0.30999,-0.106025 -0.43906,-0.226012 -0.44177,-0.410697 -0.002,-0.1435 -0.0934,-0.363474 -0.20289,-0.488788 -0.29293,-0.335341 -0.48146,-0.739805 -0.48146,-1.03295 V 6.3092741 H -0.09591808 -37.366583 l -0.07125,0.43913 c -0.0392,0.241516 -0.187324,0.602112 -0.329182,0.801343 -0.141847,0.199213 -0.257922,0.451297 -0.257922,0.560182 0,0.108862 -0.190198,0.277445 -0.42266,0.374573 -0.516063,0.215623 -0.647963,0.405405 -0.448661,0.645554 0.14723,0.177421 -0.005,0.265155 -0.171383,0.09875 z m -0.499825,-1.410329 c 0.595223,-0.270253 0.955118,-0.735721 0.895275,-1.157909 -0.03878,-0.273502 -0.09944,-0.290676 -1.147879,-0.325094 -0.83316,-0.02735 -1.094255,0.0018 -1.055633,0.117575 0.0639,0.1917 1.099024,0.261088 1.099024,0.0737 0,-0.0737 0.03719,-0.09697 0.08265,-0.0515 0.141191,0.14119 -0.356412,0.584673 -0.656031,0.584673 -0.170478,0 -0.408341,-0.158419 -0.593976,-0.395619 -0.29554,-0.377646 -0.327515,-0.388231 -0.702892,-0.232744 -0.301782,0.12503 -0.466086,0.129648 -0.706322,0.02025 -0.457859,-0.208625 -1.177157,-0.184685 -1.177157,0.03925 0,0.588332 0.670245,1.232127 1.42531,1.369055 0.196424,0.03553 0.387764,0.09538 0.425198,0.132844 0.168044,0.168009 1.622654,0.04795 2.112434,-0.174402 z m -2.570103,-0.3268 c -0.009,-0.209904 0.0511,-0.4492 0.133679,-0.531784 0.210287,-0.210295 0.664464,-0.187047 0.856056,0.04386 0.220034,0.265118 -0.163515,0.698778 -0.404716,0.457582 -0.116988,-0.117037 -0.117175,-0.150959 -8.93e-4,-0.150959 0.08259,0 0.150142,-0.08845 0.150142,-0.196388 0,-0.132134 -0.09217,-0.1833 -0.281529,-0.156465 -0.211878,0.03001 -0.300671,0.148295 -0.358902,0.477918 -0.0768,0.43462 -0.0775,0.435047 -0.09384,0.0563 z m 83.756366,0.395547 c 0.13071,-0.09555 0.3053,-0.147761 0.38799,-0.11615 0.39761,0.152558 1.42217,-0.786905 1.42372,-1.305492 0,-0.201203 -0.87473,-0.208359 -1.30853,-0.01062 -0.25118,0.114375 -0.38821,0.10905 -0.63893,-0.02504 -0.29738,-0.159128 -0.34471,-0.1435 -0.69345,0.22967 -0.40365,0.431903 -0.85833,0.518873 -1.11236,0.212799 -0.13066,-0.15753 -0.10792,-0.190811 0.14109,-0.207151 0.16326,-0.01063 0.42353,-0.0089 0.57837,0.0054 0.1804,0.01599 0.28153,-0.04494 0.28153,-0.168186 0,-0.157885 -0.18849,-0.192429 -1.04897,-0.192429 -0.96048,0 -1.05476,0.0222 -1.1177,0.262846 -0.13929,0.532673 0.36424,1.129706 1.15486,1.369304 0.54541,0.165345 1.69589,0.133377 1.95237,-0.05416 z m -0.6069,-0.410146 c -0.19795,-0.197969 -0.0675,-0.541445 0.23444,-0.617226 0.3566,-0.08951 0.80953,0.22706 0.80642,0.563627 -0.001,0.124313 -0.0613,0.0817 -0.15955,-0.113312 -0.18148,-0.359993 -0.71448,-0.506494 -0.71448,-0.196389 0,0.107975 0.0878,0.196389 0.19506,0.196389 0.10729,0 0.16027,0.0563 0.11775,0.12503 -0.0881,0.142611 -0.35551,0.165877 -0.47963,0.04174 z m -83.186662,-1.57015 c 0.509902,0.05204 0.539832,0.03765 0.500496,-0.237911 -0.08129,-0.569613 -1.082996,-0.633406 -1.613638,-0.102825 -0.320991,0.320992 -0.21248,0.501486 0.228402,0.379884 0.188323,-0.05186 0.586456,-0.06963 0.88474,-0.03925 z m 3.461642,-0.160727 c 0,-0.06891 -0.197291,-0.173869 -0.438423,-0.233507 -0.510838,-0.126272 -1.636727,0.246827 -1.219812,0.40425 0.311553,0.117575 1.658235,-0.02095 1.658235,-0.170672 z m 78.96297,-0.0018 c -0.36204,-0.273912 -1.0289,-0.359105 -1.44898,-0.185094 -0.58273,0.241374 -0.31987,0.375515 0.72735,0.371181 0.8696,-0.0035 0.93913,-0.02149 0.72163,-0.186087 z m 3.056,0.0721 c 0,-0.182413 -0.45967,-0.50573 -0.82152,-0.577818 -0.50239,-0.100162 -1.05535,0.127338 -1.05535,0.433874 0,0.221519 0.0892,0.244429 0.93843,0.241107 0.51614,-0.0018 0.93844,-0.04582 0.93844,-0.09715 z m -55.28004,2.92398 c -0.232789,-0.282419 -0.40027,-0.627776 -0.40027,-0.825372 0,-0.618737 0.972989,-0.999012 1.246841,-0.487314 0.194002,0.362497 0.157335,0.610159 -0.111656,0.75412 -0.263125,0.140836 -0.634685,0.05364 -0.634685,-0.149005 0,-0.07175 0.08411,-0.05719 0.192989,0.03304 0.252468,0.209532 0.468444,0.0018 0.411944,-0.395352 -0.05252,-0.369619 -0.421543,-0.451314 -0.739367,-0.163746 -0.330093,0.29874 -0.304249,0.473833 0.145561,0.986135 0.212573,0.242102 0.364542,0.50605 0.337705,0.586555 -0.02684,0.08045 -0.22891,-0.0721 -0.449058,-0.339213 z m 3.2428499,0.301118 c -0.02362,-0.339728 0.123396,-0.604582 0.335598,-0.604582 0.179359,0 0.17909,0.01421 -0.0028,0.156465 -0.110573,0.08596 -0.227417,0.269009 -0.25965,0.406648 -0.04282,0.182837 -0.06252,0.194009 -0.07312,0.04156 z m 1.220768,-0.44817 c -0.155648,-0.198467 -0.151208,-0.202889 0.04724,-0.04724 0.120429,0.09449 0.218966,0.192979 0.218966,0.218961 0,0.103013 -0.102758,0.03676 -0.266209,-0.171737 z m 11.277142,0.04245 c 0,-0.35415 0.73901,-0.824432 1.29557,-0.824432 0.67466,0 1.32509,0.417695 1.33013,0.854197 0.001,0.09129 -0.13819,-4.97e-4 -0.30942,-0.20399 -0.17122,-0.203493 -0.43271,-0.401728 -0.58108,-0.440533 -0.20248,-0.05293 -0.23405,-0.03481 -0.12661,0.07264 0.25474,0.254747 0.15472,0.307725 -0.46795,0.247892 -0.50382,-0.04849 -0.65758,-0.01238 -0.87587,0.20605 -0.18627,0.186283 -0.26477,0.212425 -0.26477,0.08826 z M 11.46171,8.0613561 c 0.0425,-0.06874 0.10215,-0.12503 0.1325,-0.12503 0.0303,0 0.0552,0.0563 0.0552,0.12503 0,0.06891 -0.0596,0.125206 -0.1325,0.125206 -0.0729,0 -0.0977,-0.0563 -0.0552,-0.125206 z m -41.218576,-0.198111 c 0.006,-0.145809 0.03565,-0.175469 0.07559,-0.07566 0.03614,0.0904 0.0317,0.198254 -0.01,0.239829 -0.04157,0.04156 -0.07115,-0.03233 -0.06571,-0.164279 z"
         style="display:inline;fill:#000000;stroke:none;stroke-width:0.12512429" />
      <text
         id="text880"
         y="-0.40916556"
         x="-0.22440369"
         style="font-style:normal;font-variant:normal;font-weight:bold;font-stretch:semi-expanded;font-size:17.33333397px;line-height:1.25;font-family:'Goudy Old Style';-inkscape-font-specification:'Goudy Old Style, Bold Semi-Expanded';font-variant-ligatures:normal;font-variant-caps:normal;font-variant-numeric:normal;font-feature-settings:normal;text-align:center;letter-spacing:0px;word-spacing:0px;writing-mode:lr-tb;text-anchor:middle;display:inline;fill:#000000;fill-opacity:1;stroke:none;stroke-width:0.40000001;stroke-miterlimit:4;stroke-dasharray:none"
         xml:space="preserve"><tspan
           y="-0.40916556"
           x="-0.22440371"
           id="tspan878"
           sodipodi:role="line">Cattedrale di Kazan</tspan></text>
    </g>
  </g>
  <g
     inkscape:groupmode="layer"
     id="layer5"
     inkscape:label="naso-mappa"
     style="display:none">
    <circle
       r="50"
       cy="-2.9021112e-07"
       cx="2.8247621e-07"
       id="circle874"
       style="opacity:1;vector-effect:none;fill:#e6e6e6;fill-opacity:1;stroke:none;stroke-width:0.64814806;stroke-linecap:round;stroke-linejoin:round;stroke-miterlimit:4;stroke-dasharray:none;stroke-dashoffset:0;stroke-opacity:1;paint-order:markers fill stroke" />
  </g>
  <g
     inkscape:groupmode="layer"
     id="layer4"
     inkscape:label="panino"
     style="display:none">
    <g
       id="panino-sotto"
       inkscape:label="#g857">
      <image
         sodipodi:absref="/home/daniele/hack/git/naso-gogol/resources/panino-lower.png"
         xlink:href="panino-lower.png"
         width="70"
         height="18.9"
         preserveAspectRatio="none"
         id="image1078"
         x="15"
         y="55.299999"
         style="display:inline" />
    </g>
    <g
       id="panino-naso"
       inkscape:label="#g864">
      <path
         sodipodi:nodetypes="ccccc"
         inkscape:connector-curvature="0"
         id="path851"
         d="m 43.19753,58.457477 c -1.36556,0.861351 1.06915,-0.207007 2.67281,1.99466 5.18637,1.944021 8.43676,0.829348 11.52866,-0.535715 l -5.04734,-4.741941 c -2.50422,-2.082276 -6.64992,1.694131 -9.15413,3.282996 z"
         style="fill:#ffd5d5;stroke:#ff8080;stroke-width:1.12511885px;stroke-linecap:butt;stroke-linejoin:miter;stroke-opacity:1" />
      <image
         sodipodi:absref="/home/daniele/hack/git/naso-gogol/resources/naso.png"
         xlink:href="naso.png"
         width="19.684422"
         height="28.389927"
         preserveAspectRatio="none"
         id="image1056"
         x="38.907787"
         y="38.430035"
         style="display:inline" />
    </g>
    <g
       id="panino-sopra"
       inkscape:label="#g860">
      <image
         sodipodi:absref="/home/daniele/hack/git/naso-gogol/resources/panino-upper.png"
         xlink:href="panino-upper.png"
         width="70"
         height="24.412498"
         preserveAspectRatio="none"
         id="image1089"
         x="15.009515"
         y="37.821926"
         style="display:inline" />
    </g>
    <text
       xml:space="preserve"
       style="font-style:normal;font-variant:normal;font-weight:normal;font-stretch:semi-expanded;font-size:17.33333397px;line-height:1.25;font-family:'Goudy Old Style';-inkscape-font-specification:'Goudy Old Style, Semi-Expanded';font-variant-ligatures:normal;font-variant-caps:normal;font-variant-numeric:normal;font-feature-settings:normal;text-align:center;letter-spacing:0px;word-spacing:0px;writing-mode:lr-tb;text-anchor:middle;display:inline;fill:#e6e6e6;fill-opacity:1;stroke:none"
       x="50.089806"
       y="19.440334"
       id="gogolgame"
       inkscape:label="#text847"><tspan
         sodipodi:role="line"
         id="tspan845"
         x="50.089806"
         y="19.440334">Gogol game</tspan></text>
    <text
       inkscape:label="#text847"
       id="subtitle"
       y="91.720268"
       x="50.070648"
       style="font-style:normal;font-variant:normal;font-weight:normal;font-stretch:semi-expanded;font-size:8.61586571px;line-height:1.25;font-family:'Goudy Old Style';-inkscape-font-specification:'Goudy Old Style, Semi-Expanded';font-variant-ligatures:normal;font-variant-caps:normal;font-variant-numeric:normal;font-feature-settings:normal;text-align:center;letter-spacing:0px;word-spacing:0px;writing-mode:lr-tb;text-anchor:middle;display:inline;fill:#e6e6e6;fill-opacity:1;stroke:none;stroke-width:0.49706915"
       xml:space="preserve"><tspan
         y="91.720268"
         x="50.070648"
         id="tspan967"
         sodipodi:role="line"
         style="stroke-width:0.49706915">dal racconto <tspan
   style="font-style:italic;font-variant:normal;font-weight:normal;font-stretch:normal;font-size:8.61586666px;font-family:'Goudy Old Style';-inkscape-font-specification:'Goudy Old Style, Italic';font-variant-ligatures:normal;font-variant-caps:normal;font-variant-numeric:normal;font-feature-settings:normal;text-align:center;writing-mode:lr-tb;text-anchor:middle"
   id="tspan892">Il Naso</tspan> di N. Gogol</tspan></text>
    <image
       sodipodi:absref="/home/daniele/hack/git/naso-gogol/resources/panino-above.png"
       xlink:href="panino-above.png"
       y="-33.389297"
       x="-35"
       id="panino-above"
       preserveAspectRatio="none"
       height="68.162498"
       width="70"
       inkscape:label="#image1067" />
    <image
       style="display:inline"
       sodipodi:absref="/home/daniele/hack/git/naso-gogol/naso-ng/src/assets/naso.png"
       y="-38.775108"
       x="-22.227919"
       id="panino-naso-2"
       xlink:href="file:///home/daniele/hack/git/naso-gogol/naso-ng/src/assets/naso.png"
       preserveAspectRatio="none"
       height="60.932877"
       width="43.809399"
       inkscape:label="#image313" />
  </g>
  <g
     inkscape:groupmode="layer"
     id="layer6"
     inkscape:label="rotate"
     style="display:none">
    <path
       style="fill:#000000;stroke-width:0.13860093"
       d="m 33.180866,82.693189 c -0.965874,-0.450686 -1.659212,-1.185924 -2.218102,-2.35213 L 30.492304,79.35938 V 67.129165 c 0,-12.097712 0.0032,-12.2387 0.292021,-13.010731 0.407404,-1.088888 1.292119,-2.125785 2.210845,-2.591133 l 0.754257,-0.382045 29.244802,-0.0019 c 16.592245,-0.0013 29.426393,0.05094 29.664543,0.120645 1.29137,0.377887 2.37809,1.287174 2.92412,2.446705 l 0.32634,0.693001 10e-4,12.689425 0.001,12.689423 -0.35317,0.708703 c -0.4227,0.848245 -1.36608,1.753503 -2.25591,2.164742 l -0.64811,0.299504 -29.383399,0.03396 -29.383401,0.03396 z M 88.150292,66.946393 V 53.085959 l -24.844215,0.03506 -24.844218,0.03506 -0.03532,13.825443 -0.03531,13.82544 H 63.270762 88.150298 Z M 8.428876,80.539906 C 7.461523,80.161658 6.863335,79.752852 6.238465,79.042962 5.184542,77.845644 5.259556,80.336514 5.299984,47.879876 L 5.336264,18.777065 5.79254,17.85027 c 0.495982,-1.007452 1.209198,-1.716296 2.191419,-2.177996 0.598175,-0.281175 0.778893,-0.285049 13.305153,-0.285049 h 12.69875 l 0.821233,0.437716 c 0.972072,0.518106 1.552428,1.139478 2.044871,2.189378 l 0.360514,0.768628 0.03751,15.696561 0.03751,15.696556 H 36.38572 35.48194 V 36.454603 22.73311 H 21.206045 6.930149 v 25.225369 25.225367 h 11.365277 11.365277 v 3.052685 c 0,2.657366 0.03454,3.150953 0.266707,3.811526 l 0.266713,0.75884 -10.557828,-0.0065 C 9.737639,80.794597 9.03791,80.778057 8.428876,80.53992 Z m 49.40198,-33.503374 c -2.736524,-4.736565 -3.242616,-5.623411 -3.311399,-5.802664 -0.06568,-0.171144 0.108849,-0.205471 1.044787,-0.205471 h 1.123635 v -0.408669 c 0,-0.919223 -0.438142,-3.656799 -0.766743,-4.790738 -1.575857,-5.437953 -5.619447,-8.604084 -11.772229,-9.217644 -0.836114,-0.08338 -1.912006,-0.109643 -2.390866,-0.05836 l -0.870667,0.09324 V 24.911633 23.17704 l 0.935557,-0.09385 c 0.514556,-0.05165 1.712597,-0.02234 2.662305,0.0651 4.232636,0.389631 7.792071,1.909972 10.50503,4.487018 2.903724,2.758262 4.576187,6.610364 5.047609,11.625967 l 0.166096,1.767157 h 1.083278 c 0.595799,0 1.083271,0.04939 1.083271,0.109728 0,0.12905 -3.697211,6.553543 -3.872157,6.72849 -0.06641,0.06641 -0.361734,-0.300834 -0.667507,-0.830083 z"
       id="rotatescreen"
       inkscape:connector-curvature="0"
       sodipodi:nodetypes="cccscccccscccccccccccccccccccsccccsccccccccccccccccscccccccscsccsccccccccssscc"
       inkscape:label="#path63" />
  </g>
  <g
     inkscape:groupmode="layer"
     id="layer7"
     inkscape:label="readers"
     style="display:inline">
    <image
       sodipodi:absref="/home/daniele/hack/git/naso-gogol/naso-ng/src/assets/reader-01.jpg"
       y="-50"
       x="-50"
       id="reader-01"
       xlink:href="file:///home/daniele/hack/git/naso-gogol/naso-ng/src/assets/reader-01.jpg"
       preserveAspectRatio="none"
       height="100"
       width="100"
       inkscape:label="#image198" />
    <image
       sodipodi:absref="/home/daniele/hack/git/naso-gogol/naso-ng/src/assets/readers/carla-congiu.jpg"
       y="44.166656"
       x="132.91666"
       id="image507"
       xlink:href="file:///home/daniele/hack/git/naso-gogol/naso-ng/src/assets/readers/carla-congiu.jpg"
       preserveAspectRatio="none"
       height="145.99763"
       width="145.99763" />
    <path
       style="fill:#000000;stroke-width:0.20214669"
       d="m 313.17195,27.214687 c -0.25521,-0.804099 -2.21195,-3.58865 -3.41271,-4.856473 -4.81595,-5.08494 -10.85056,-8.519715 -19.67542,-11.198854 -6.59515,-2.0022211 -12.61276,-3.2289401 -19.92003,-4.0607921 -2.52843,-0.287834 -5.44885,-0.744625 -6.48982,-1.015091 -7.51997,-1.953851 -11.01452,-6.28256396 -10.81012,-13.390521 l 0.0653,-2.269468 -0.50537,-0.102167 c -0.27795,-0.05619 -1.11125,-0.195193 -1.85177,-0.30889 -4.44685,-0.6827629 -7.77038,-2.6917939 -9.21781,-5.5720429 -0.7684,-1.529047 -1.0605,-2.915098 -1.05428,-5.002671 0.004,-1.464331 0.0804,-2.056127 0.50437,-3.925762 0.10006,-0.441239 0.0757,-0.446695 -1.4672,-0.329008 -4.08613,0.311674 -7.22192,-1.001847 -9.24293,-3.871685 -1.65997,-2.357147 -2.2745,-4.542426 -3.04131,-10.814848 -1.36919,-11.199814 -4.40077,-20.753144 -8.31841,-26.213514 -2.25084,-3.1372 -4.90114,-5.65455 -7.01395,-6.66208 -0.40523,-0.19324 -0.73678,-0.40326 -0.73678,-0.4667 0,-0.0635 0.25849,-0.22978 0.57442,-0.36963 0.31593,-0.13984 1.29381,-0.78658 2.17307,-1.43719 6.81131,-5.04004 11.39234,-15.85894 13.3203,-31.45822 0.6506,-5.26406 1.10072,-7.21912 2.15226,-9.34807 1.96032,-3.96887 5.57447,-5.86725 10.31019,-5.41556 l 1.34152,0.12795 -0.27315,-1.2734 c -0.33442,-1.5591 -0.36527,-4.41861 -0.0632,-5.86228 0.84016,-4.01566 4.33697,-6.80412 9.72443,-7.75453 1.03237,-0.18212 2.05896,-0.36343 2.28132,-0.40292 0.38067,-0.0676 0.40028,-0.20282 0.33562,-2.31416 -0.14751,-4.81611 1.35333,-8.22754 4.71089,-10.70791 2.80259,-2.0704 6.14147,-3.05157 12.7424,-3.74452 8.9892,-0.94367 19.5656,-3.49053 26.1188,-6.28957 1.14233,-0.48792 2.1118,-0.88712 2.15438,-0.88712 0.23627,0 4.70091,-2.6484 5.99069,-3.55364 3.75209,-2.63344 6.70156,-5.77651 8.31285,-8.8585 l 0.53022,-1.01416 0.4269,0.8368 c 0.81708,1.6016 2.35883,3.60551 4.1697,5.41962 5.90991,5.92044 14.37365,9.77237 27.69718,12.60526 4.16395,0.88535 6.05338,1.1869 10.93717,1.74555 4.89191,0.55959 6.91868,0.97865 9.29089,1.92099 4.52348,1.79692 7.15244,4.87985 7.91525,9.28206 0.29135,1.68137 0.26943,4.82706 -0.0403,5.79051 -0.11947,0.37154 0.0178,0.47783 1.1427,0.88505 2.05503,0.7439 3.08678,1.33923 4.35355,2.51204 1.4267,1.32087 2.1997,2.66741 2.5908,4.51306 0.43306,2.04371 0.36714,3.88083 -0.22864,6.37252 -0.28936,1.21013 -0.46965,2.25669 -0.40064,2.3257 0.069,0.069 1.56971,-0.31228 3.33491,-0.84729 3.05443,-0.92576 3.28615,-0.96606 4.79733,-0.83437 2.92598,0.25497 4.54115,0.92556 6.29802,2.61479 1.17736,1.13203 1.92334,2.34509 2.62737,4.27238 0.70237,1.92278 0.89827,2.96132 1.56336,8.28801 0.27764,2.22362 0.64596,4.77067 0.81848,5.66011 0.42321,2.18195 1.96141,8.11153 2.62194,10.10733 0.29437,0.88945 0.55852,1.70814 0.587,1.81933 0.13232,0.51665 1.09034,2.61486 2.04922,4.48816 1.32808,2.59458 2.84301,4.80429 4.52964,6.60704 1.43282,1.53146 4.1963,3.69189 4.97121,3.88638 0.50628,0.12707 0.67713,0.48264 0.23191,0.48264 -0.43223,0 -2.89056,1.74995 -4.26657,3.03715 -2.62682,2.45725 -5.22543,6.4879 -6.91552,10.72646 -0.50595,1.26888 -0.99747,2.48898 -1.09224,2.71134 -0.0948,0.22236 -0.21595,0.58623 -0.26928,0.80859 -0.0533,0.22236 -0.47684,1.81128 -0.94113,3.53094 -1.20197,4.45179 -1.74164,7.27892 -2.4484,12.826185 -0.69493,5.454366 -1.32199,7.805818 -2.60995,9.787086 -1.77669,2.733082 -3.81355,3.975291 -7.12002,4.342244 -1.98283,0.220053 -2.1267,0.20713 -5.54454,-0.498104 -2.27918,-0.470284 -3.50763,-0.644951 -3.50532,-0.498404 0.002,0.124089 0.27487,1.085303 0.60644,2.136031 0.88554,2.806154 0.73017,5.865127 -0.41157,8.103127 -1.04258,2.043628 -3.46334,3.972934 -6.07123,4.83867 -0.82806,0.274887 -1.52804,0.509618 -1.55551,0.521621 -0.0275,0.01201 0.0986,0.4577599 0.28014,0.9905659 0.25912,0.760486 0.30563,1.430555 0.21635,3.117017 -0.25108,4.742478 -1.73713,7.523285 -5.29048,9.89991 -2.69899,1.80519 -6.12173,2.774598 -11.84527,3.354877 -3.88179,0.393553 -7.1719,0.91989 -11.51025,1.841362 -12.93264,2.7469051 -21.61369,6.7233281 -27.40623,12.5536631 -1.79624,1.80796 -4.3308,5.228363 -4.3308,5.844445 0,0.427035 -0.35712,0.352766 -0.50224,-0.104449 z M 314.7172,13.57777 c 3.55683,-5.4210531 10.12973,-9.6553061 19.3738,-12.4805631 5.01562,-1.53291896 10.77984,-2.715758 16.57603,-3.40146 4.55456,-0.538816 6.55349,-0.909997 8.35108,-1.550709 3.75358,-1.337884 6.0966,-3.491987 7.24071,-6.6568929 0.34805,-0.962813 0.43708,-1.690177 0.45571,-3.723394 0.0127,-1.389759 -0.0517,-2.764286 -0.14327,-3.054504 -0.15218,-0.482437 -0.10956,-0.539046 0.49721,-0.660401 1.18156,-0.236311 3.55117,-1.547508 4.51639,-2.499093 2.30318,-2.270647 2.99623,-5.830426 1.82174,-9.357109 -0.29985,-0.900352 -0.49588,-1.686302 -0.43562,-1.746554 0.0602,-0.06025 1.27494,0.138996 2.69931,0.442774 6.24648,1.332199 9.91223,0.03827 12.03882,-4.249443 0.86312,-1.74024 1.14133,-2.912382 1.66822,-7.028271 1.86702,-14.58479 5.54308,-23.76373 11.41098,-28.49264 0.82774,-0.66707 1.80564,-1.35623 2.17308,-1.53145 0.36744,-0.17522 0.66537,-0.36996 0.66207,-0.43275 -0.003,-0.0628 -0.56595,-0.43255 -1.2503,-0.82169 -1.56339,-0.88895 -4.01846,-3.27737 -5.40248,-5.25581 -3.67117,-5.24788 -6.19117,-13.31158 -7.58463,-24.26987 -0.27654,-2.17477 -0.68379,-4.53989 -0.905,-5.25582 -0.43562,-1.40986 -1.53539,-3.382 -2.40138,-4.30626 -2.03569,-2.17264 -6.00371,-2.97816 -9.24977,-1.87774 -1.72577,0.58504 -3.51077,1.01951 -3.64346,0.88682 -0.0546,-0.0546 0.12888,-1.08961 0.40765,-2.3001 0.44936,-1.9512 0.48623,-2.40083 0.32503,-3.96333 -0.24319,-2.35704 -0.94277,-3.90235 -2.3481,-5.18675 -1.27663,-1.16677 -2.45205,-1.88105 -3.84543,-2.3368 l -1.03001,-0.3369 0.0975,-2.3667 c 0.19779,-4.8026 -1.26978,-7.95479 -4.71721,-10.13203 -2.5244,-1.59431 -4.82691,-2.22065 -10.80548,-2.93937 -5.37658,-0.64635 -8.69708,-1.26078 -13.64179,-2.52431 -9.70888,-2.48092 -16.10242,-5.76396 -20.75246,-10.65623 -0.95985,-1.00984 -2.86116,-3.64636 -3.28624,-4.55697 -0.0837,-0.17928 -0.14959,-0.18641 -0.22746,-0.0246 -0.3155,0.65563 -2.09158,3.15093 -2.95411,4.15038 -1.2553,1.45455 -3.85156,3.6295 -5.93179,4.96921 -6.29028,4.05107 -16.16203,7.04128 -28.2231,8.54895 -5.50165,0.68772 -6.8074,0.94695 -8.93887,1.7746 -1.89086,0.73422 -3.5074,1.81387 -4.7475,3.17074 -1.77371,1.94072 -2.45391,4.07279 -2.45874,7.70687 l -0.003,2.24804 -1.19555,0.13526 c -1.61095,0.18226 -3.86802,0.82459 -5.13945,1.46262 -3.89095,1.95256 -5.44848,5.57546 -4.51077,10.4923 l 0.27182,1.42525 -1.81556,-0.0868 c -4.15577,-0.19869 -6.85476,1.32763 -8.56904,4.84594 -0.87245,1.79056 -1.17856,3.10916 -1.66825,7.18613 -1.28403,10.69029 -4.09582,19.49522 -7.79546,24.41088 -1.38715,1.8431 -3.72857,4.07822 -5.21531,4.97855 -0.62791,0.38025 -1.14166,0.73684 -1.14166,0.79243 0,0.0556 0.50994,0.40984 1.1332,0.78721 1.55437,0.94116 3.73922,3.03785 5.17295,4.96422 1.10049,1.47864 2.20604,3.36133 2.15799,3.67495 -0.011,0.0717 0.0699,0.18604 0.17976,0.25406 0.23953,0.14831 1.10338,2.04786 1.75695,3.86339 1.66661,4.62963 2.8657,9.92343 3.71555,16.4036 0.67214,5.12515 1.1184,6.722657 2.44803,8.763447 0.95019,1.458408 1.71519,2.110624 3.38903,2.889362 1.01562,0.47251 1.46894,0.548808 3.65533,0.615237 l 2.49592,0.07584 -0.11765,0.736723 c -0.52822,3.307878 -0.25121,6.060384 0.78848,7.834482 0.6844,1.167836 2.21555,2.48317 3.80794,3.271221 1.34987,0.668024 4.30958,1.444043 5.53878,1.452228 l 0.65697,0.0044 v 2.292352 c 0,4.061454 0.8484,6.2810789 3.25098,8.5054469 2.42428,2.244463 5.46656,3.269632 12.03575,4.055738 12.64131,1.51273004 22.94895,4.626824 29.34411,8.865297 2.34987,1.557408 3.14422,2.207815 4.95745,4.0591541 1.36667,1.395392 3.56541,4.454524 3.58818,4.992295 0.008,0.187107 0.0922,0.152318 0.25268,-0.104368 0.13244,-0.211769 0.66467,-1.03109 1.18274,-1.820695 z"
       id="path521"
       inkscape:connector-curvature="0" />
    <path
       inkscape:connector-curvature="0"
       id="path523"
       d="m 205.66902,185.49234 c -0.17538,-0.55258 -1.52006,-2.46615 -2.34523,-3.33741 -3.30956,-3.4944 -7.45658,-5.85479 -13.52108,-7.69592 -4.53223,-1.37594 -8.66757,-2.21895 -13.68917,-2.7906 -1.73756,-0.19781 -3.74449,-0.51172 -4.45985,-0.69757 -5.16777,-1.3427 -7.56925,-4.31743 -7.42879,-9.20206 l 0.0449,-1.55959 -0.3473,-0.0702 c -0.191,-0.0386 -0.76365,-0.13413 -1.27254,-0.21227 -3.05591,-0.4692 -5.33986,-1.84981 -6.33454,-3.82914 -0.52805,-1.05078 -0.72878,-2.00327 -0.72451,-3.43787 0.003,-1.00629 0.0553,-1.41298 0.34661,-2.69781 0.0688,-0.30321 0.052,-0.30696 -1.00827,-0.22609 -2.80802,0.21418 -4.96295,-0.68848 -6.35181,-2.66065 -1.14074,-1.61985 -1.56304,-3.12159 -2.09001,-7.43204 -0.94091,-7.69658 -3.02424,-14.26169 -5.71645,-18.01409 -1.5468,-2.1559 -3.3681,-3.88584 -4.82004,-4.57823 -0.27847,-0.1328 -0.50632,-0.27712 -0.50632,-0.32072 0,-0.0436 0.17764,-0.15791 0.39474,-0.254 0.21712,-0.0961 0.88912,-0.54055 1.49336,-0.98765 4.68077,-3.46355 7.82888,-10.89837 9.15379,-21.618298 0.44709,-3.617497 0.75642,-4.961026 1.47905,-6.424055 1.34714,-2.727434 3.83081,-4.032012 7.08523,-3.721608 l 0.9219,0.08793 -0.18771,-0.875089 c -0.22982,-1.071424 -0.25102,-3.036498 -0.0435,-4.028598 0.57737,-2.759587 2.9804,-4.675835 6.68269,-5.328963 0.70946,-0.125154 1.41493,-0.249752 1.56774,-0.276889 0.2616,-0.04646 0.27508,-0.139379 0.23064,-1.590306 -0.1014,-3.309662 0.93002,-5.654019 3.23736,-7.358546 1.92596,-1.422792 4.22046,-2.097058 8.75666,-2.573258 6.17743,-0.648497 13.44561,-2.398715 17.949,-4.322234 0.78502,-0.335302 1.45125,-0.609635 1.48052,-0.609635 0.16236,0 3.23049,-1.819997 4.11684,-2.442084 2.57845,-1.809717 4.60535,-3.969655 5.71264,-6.087619 l 0.36438,-0.696937 0.29336,0.575055 c 0.5615,1.100629 1.621,2.477729 2.86545,3.724397 4.06132,4.068565 9.87766,6.715637 19.03368,8.662417 2.86149,0.608418 4.15992,0.815646 7.51609,1.199553 3.36176,0.384554 4.75457,0.672535 6.38476,1.320117 3.10857,1.234856 4.91521,3.353465 5.43941,6.378693 0.20022,1.155448 0.18515,3.317187 -0.0277,3.979276 -0.0821,0.255325 0.0123,0.328368 0.78526,0.608212 1.41223,0.511213 2.12126,0.920328 2.9918,1.726291 0.98043,0.90771 1.51165,1.83306 1.78042,3.101403 0.29759,1.404451 0.25229,2.666933 -0.15713,4.379238 -0.19886,0.83161 -0.32275,1.550812 -0.27533,1.598237 0.0474,0.04742 1.07872,-0.214602 2.29178,-0.582263 2.09902,-0.636189 2.25826,-0.663883 3.29675,-0.573385 2.01075,0.175217 3.12071,0.63605 4.32805,1.7969 0.80908,0.777938 1.32172,1.611562 1.80554,2.936008 0.48267,1.321346 0.6173,2.035038 1.07435,5.695575 0.1908,1.528085 0.44391,3.278435 0.56247,3.889664 0.29082,1.49945 1.34789,5.574301 1.80181,6.945821 0.20229,0.61124 0.38382,1.17385 0.40339,1.25026 0.091,0.35504 0.74929,1.79694 1.40823,3.08429 0.91268,1.78301 1.95374,3.30154 3.11281,4.5404 0.98464,1.05243 2.88372,2.53709 3.41624,2.67075 0.34793,0.0873 0.46534,0.33167 0.15937,0.33167 -0.29703,0 -1.98641,1.20258 -2.93202,2.08715 -1.80516,1.68863 -3.59094,4.45852 -4.75238,7.37129 -0.3477,0.87199 -0.68547,1.71044 -0.7506,1.86325 -0.0651,0.15281 -0.1484,0.40286 -0.18505,0.55567 -0.0366,0.15281 -0.32768,1.24472 -0.64674,2.42649 -0.82601,3.05929 -1.19688,5.00211 -1.68256,8.81422 -0.47757,3.74829 -0.90848,5.36422 -1.79358,6.72576 -1.22095,1.87819 -2.62069,2.73184 -4.89292,2.98402 -1.36261,0.15122 -1.46149,0.14234 -3.81025,-0.34231 -1.56626,-0.32318 -2.41046,-0.4432 -2.40887,-0.34249 0.001,0.0853 0.18889,0.74582 0.41675,1.46788 0.60854,1.92842 0.50177,4.03056 -0.28284,5.56853 -0.71647,1.40439 -2.38002,2.73022 -4.17219,3.32517 -0.56904,0.1889 -1.05008,0.3502 -1.06895,0.35846 -0.0189,0.008 0.0678,0.31457 0.19251,0.68071 0.17807,0.52262 0.21003,0.98309 0.14868,2.14204 -0.17255,3.25906 -1.19377,5.17006 -3.63566,6.80329 -1.85476,1.24054 -4.20689,1.90673 -8.14014,2.3055 -2.6676,0.27044 -4.92858,0.63214 -7.90992,1.26539 -8.88739,1.88768 -14.85307,4.62031 -18.83375,8.62695 -1.23438,1.24245 -2.97614,3.59297 -2.97614,4.01635 0,0.29345 -0.24542,0.24242 -0.34515,-0.0718 z m 1.06191,-9.37138 c 2.44428,-3.72538 6.96122,-6.63519 13.3138,-8.57672 3.44677,-1.05344 7.40797,-1.86629 11.39116,-2.3375 3.12992,-0.37029 4.5036,-0.62537 5.73892,-1.06567 2.57948,-0.91941 4.18961,-2.39972 4.97586,-4.57466 0.23917,-0.66165 0.30036,-1.16149 0.31316,-2.55874 0.009,-0.95505 -0.0356,-1.89964 -0.0984,-2.09907 -0.10457,-0.33154 -0.0752,-0.37044 0.34169,-0.45383 0.81198,-0.1624 2.44039,-1.06346 3.1037,-1.7174 1.58275,-1.5604 2.05903,-4.00671 1.25191,-6.43027 -0.20606,-0.61873 -0.34077,-1.15884 -0.29936,-1.20024 0.0414,-0.0414 0.87614,0.0955 1.85498,0.30428 4.29262,0.91549 6.81175,0.0263 8.27316,-2.92025 0.59314,-1.1959 0.78433,-2.00141 1.1464,-4.82986 1.28304,-10.02278 3.80925,-16.3306 7.84171,-19.58033 0.56883,-0.45842 1.24085,-0.93202 1.49335,-1.05243 0.25251,-0.12042 0.45725,-0.25424 0.45498,-0.29739 -0.002,-0.0431 -0.38893,-0.29724 -0.85921,-0.56467 -1.07437,-0.61089 -2.76151,-2.25223 -3.71262,-3.61182 -2.52285,-3.60639 -4.25462,-9.14781 -5.21221,-16.678418 -0.19004,-1.494517 -0.4699,-3.119842 -0.62192,-3.611834 -0.29936,-0.968866 -1.05513,-2.324133 -1.65024,-2.95929 -1.39894,-1.493053 -4.1258,-2.046611 -6.35651,-1.290396 -1.18596,0.402044 -2.41262,0.700614 -2.50381,0.609429 -0.0375,-0.03753 0.0885,-0.748787 0.28015,-1.580643 0.30879,-1.340878 0.33413,-1.649866 0.22336,-2.723627 -0.16712,-1.619774 -0.64788,-2.681721 -1.61364,-3.564369 -0.8773,-0.801811 -1.68506,-1.29267 -2.6426,-1.605864 l -0.70783,-0.23152 0.0671,-1.626412 c 0.13592,-3.300377 -0.87261,-5.466583 -3.2417,-6.962796 -1.73478,-1.095621 -3.31709,-1.526046 -7.42559,-2.019955 -3.69483,-0.444176 -5.97669,-0.866416 -9.37473,-1.734722 -6.67201,-1.704904 -11.06569,-3.961031 -14.26123,-7.323031 -0.65962,-0.693968 -1.9662,-2.505802 -2.25833,-3.131579 -0.0575,-0.123202 -0.10279,-0.128103 -0.15631,-0.01691 -0.21681,0.450553 -1.43735,2.165341 -2.03008,2.852169 -0.86266,0.999575 -2.64681,2.494216 -4.07637,3.414873 -4.32272,2.783921 -11.10665,4.838814 -19.3951,5.874894 -3.78077,0.472606 -4.67808,0.65075 -6.14285,1.219517 -1.29941,0.50456 -2.4103,1.246504 -3.26251,2.178953 -1.2189,1.333676 -1.68634,2.798848 -1.68966,5.296212 l -0.002,1.544867 -0.82159,0.09295 c -1.10706,0.12525 -2.65813,0.566664 -3.53187,1.005122 -2.67388,1.341812 -3.74422,3.831493 -3.09983,7.210378 l 0.1868,0.979441 -1.24766,-0.05965 c -2.85587,-0.136541 -4.71064,0.912356 -5.88871,3.330161 -0.59955,1.230485 -0.80991,2.136635 -1.14642,4.938356 -0.8824,7.346434 -2.81468,13.397234 -5.3571,16.775314 -0.95325,1.26658 -2.5623,2.80258 -3.58399,3.42129 -0.43151,0.26131 -0.78455,0.50636 -0.78455,0.54457 0,0.0382 0.35043,0.28164 0.77874,0.54096 1.06817,0.64678 2.56962,2.08764 3.55488,3.41145 0.75627,1.01613 1.51601,2.30993 1.48299,2.52545 -0.007,0.0493 0.048,0.12785 0.12352,0.17459 0.16462,0.10191 0.75826,1.4073 1.20739,2.65495 1.14531,3.18152 1.96933,6.81944 2.55336,11.27266 0.4619,3.52204 0.76857,4.61986 1.68229,6.0223 0.65298,1.00222 1.1787,1.45044 2.32897,1.98559 0.69794,0.32471 1.00947,0.37714 2.51197,0.42279 l 1.71521,0.0521 -0.0809,0.50629 c -0.36299,2.27319 -0.17264,4.16473 0.54185,5.38391 0.47032,0.80254 1.52253,1.70645 2.61684,2.248 0.92764,0.45907 2.96157,0.99235 3.80628,0.99798 l 0.45148,0.003 v 1.57532 c 0,2.79107 0.58302,4.3164 2.23409,5.845 1.66598,1.54241 3.75665,2.24691 8.27105,2.78713 8.68719,1.03956 15.77067,3.17958 20.16546,6.09229 1.61485,1.07026 2.16073,1.51722 3.40679,2.78948 0.93919,0.95892 2.45017,3.06117 2.46582,3.43073 0.005,0.12858 0.0634,0.10468 0.17365,-0.0718 0.091,-0.14553 0.45677,-0.70858 0.81279,-1.25119 z"
       style="fill:#ffffff;stroke-width:0.13891652" />
    <use
       x="0"
       y="0"
       xlink:href="#image507"
       id="use525"
       transform="matrix(0.86301148,0,0,0.86301148,181.70806,16.050325)"
       width="100%"
       height="100%" />
    <use
       x="0"
       y="0"
       xlink:href="#path523"
       id="use527"
       transform="translate(153.5)"
       width="100%"
       height="100%" />
    <path
       style="opacity:0.75;vector-effect:none;fill:#2b2200;fill-opacity:1;stroke:none;stroke-width:3.35195541;stroke-linecap:round;stroke-linejoin:round;stroke-miterlimit:4;stroke-dasharray:none;stroke-dashoffset:0;stroke-opacity:1;paint-order:markers fill stroke"
       d="m 313.61173,189.5 h 59.77654 c 11.1419,0 20.11173,8.96983 20.11173,20.11173 v 59.77654 c 0,11.1419 -8.96983,20.11173 -20.11173,20.11173 H 313.61173 C 302.46983,289.5 293.5,280.53017 293.5,269.38827 v -59.77654 c 0,-11.1419 8.96983,-20.11173 20.11173,-20.11173 z"
       id="rect529" />
    <use
       height="100%"
       width="100%"
       transform="matrix(0.70991224,0,0,0.70991224,197.34621,156.6601)"
       id="use531"
       xlink:href="#path523"
       y="0"
       x="0" />
    <rect
       ry="20.111732"
       y="189.5"
       x="423"
       height="100"
       width="100"
       id="rect533"
       style="opacity:0.75;vector-effect:none;fill:#2b2200;fill-opacity:1;stroke:none;stroke-width:3.35195541;stroke-linecap:round;stroke-linejoin:round;stroke-miterlimit:4;stroke-dasharray:none;stroke-dashoffset:0;stroke-opacity:1;paint-order:markers fill stroke" />
    <use
       x="0"
       y="0"
       xlink:href="#path523"
       id="use535"
       transform="matrix(0.70991224,0,0,0.70991224,326.84621,156.6601)"
       width="100%"
       height="100%" />
  </g>
  <g
     inkscape:groupmode="layer"
     id="layer11"
     inkscape:label="widgets"
     style="display:none">
    <g
       inkscape:groupmode="layer"
       id="layer14"
       inkscape:label="bg"
       style="display:none">
      <rect
         style="opacity:1;vector-effect:none;fill:#ffb380;fill-opacity:1;stroke:none;stroke-width:2.80936098;stroke-linecap:round;stroke-linejoin:round;stroke-miterlimit:4;stroke-dasharray:none;stroke-dashoffset:0;stroke-opacity:1;paint-order:markers fill stroke"
         id="rect1296"
         width="140"
         height="142.80901"
         x="-20"
         y="-22.809006"
         ry="16.856144" />
    </g>
    <g
       inkscape:groupmode="layer"
       id="layer15"
       inkscape:label="go-back"
       style="display:none">
      <path
         style="opacity:0.5;vector-effect:none;fill:#ffffff;fill-opacity:1;stroke:none;stroke-width:4.41176462;stroke-linecap:round;stroke-linejoin:round;stroke-miterlimit:4;stroke-dasharray:none;stroke-dashoffset:0;stroke-opacity:1;paint-order:markers fill stroke"
         d="M 50,-1.4042969 A 50,50 0 0 0 0,48.595703 a 50,50 0 0 0 50,50 50,50 0 0 0 50,-50 A 50,50 0 0 0 50,-1.4042969 Z M 68.220703,19.458984 c 0.648833,0.374604 0.166016,28.387512 0.166016,29.136719 0,0.749208 0.482817,28.760162 -0.166016,29.134766 C 67.57187,78.105073 43.55313,63.681244 42.904297,63.306641 42.255464,62.932037 17.755859,49.344911 17.755859,48.595703 c 0,-0.749207 24.499605,-14.338287 25.148438,-14.712891 C 43.55313,33.508209 67.57187,19.084381 68.220703,19.458984 Z"
         id="go-back"
         inkscape:label="#path1298"
         inkscape:connector-curvature="0" />
    </g>
    <g
       inkscape:groupmode="layer"
       id="layer12"
       inkscape:label="skip forward"
       style="display:none">
      <path
         style="opacity:0.5;vector-effect:none;fill:#ffffff;fill-opacity:1;stroke:none;stroke-width:4.82118273;stroke-linecap:round;stroke-linejoin:round;stroke-miterlimit:4;stroke-dasharray:none;stroke-dashoffset:0;stroke-opacity:1;paint-order:markers fill stroke"
         d="M 50,0 A 50,50 0 0 0 0,50 50,50 0 0 0 50,100 50,50 0 0 0 100,50 50,50 0 0 0 50,0 Z M 23.738281,20.863281 C 24.122965,20.488677 38.363363,34.91446 38.748047,35.289062 39.132731,35.663666 53.658203,49.250792 53.658203,50 c 0,0.749208 -14.525472,14.336333 -14.910156,14.710938 C 38.363363,65.085541 24.122965,79.511323 23.738281,79.136719 23.353597,78.762115 23.640625,50.749208 23.640625,50 c 0,-0.749208 -0.287028,-28.762115 0.09766,-29.136719 z m 30.121094,0 C 54.244059,20.488677 68.484457,34.914459 68.869141,35.289062 69.253825,35.663666 83.779297,49.250792 83.779297,50 c 0,0.749208 -14.525472,14.336334 -14.910156,14.710938 C 68.484457,65.085541 54.244059,79.511323 53.859375,79.136719 53.474691,78.762115 53.759766,50.749208 53.759766,50 c 0,-0.749208 -0.285075,-28.762115 0.09961,-29.136719 z"
         id="skip-forward"
         inkscape:label="#path1070"
         inkscape:connector-curvature="0" />
      <path
         style="opacity:0.5;vector-effect:none;fill:#000000;fill-opacity:1;stroke:none;stroke-width:4.82118273;stroke-linecap:round;stroke-linejoin:round;stroke-miterlimit:4;stroke-dasharray:none;stroke-dashoffset:0;stroke-opacity:1;paint-order:markers fill stroke"
         d="m 50,-108.1875 a 50,50 0 0 0 -22.644531,5.42383 c 4.356656,7.14221 11.127754,18.891514 11.392578,19.333982 0.384684,0.642733 14.910156,23.956723 14.910156,25.242188 0,1.285465 -14.525472,24.599455 -14.910156,25.242188 -0.264284,0.441566 -7.00743,12.144207 -11.365235,19.291015 A 50,50 0 0 0 50,-8.1875 50,50 0 0 0 53.841797,-8.3789062 c -0.355335,-2.2249458 -0.08203,-48.5454948 -0.08203,-49.8085938 0,-1.266696 -0.275978,-47.85979 0.08398,-49.83789 A 50,50 0 0 0 50,-108.1875 Z m 4.099609,0.19336 c 1.918625,2.25993 14.409558,23.963006 14.769532,24.564452 0.384684,0.642733 14.910156,23.956723 14.910156,25.242188 0,1.285465 -14.525472,24.599455 -14.910156,25.242188 -0.359547,0.600733 -12.818407,22.249478 -14.759766,24.5527339 A 50,50 0 0 0 100,-58.1875 50,50 0 0 0 54.099609,-107.99414 Z m -30.535156,7.40039 A 50,50 0 0 0 0,-58.1875 50,50 0 0 0 23.564453,-15.820312 c -0.08651,-13.73744 0.07617,-41.395161 0.07617,-42.367188 0,-0.973144 -0.16336,-28.685241 -0.07617,-42.40625 z"
         id="circle1076"
         inkscape:connector-curvature="0" />
    </g>
    <g
       inkscape:groupmode="layer"
       id="layer13"
       inkscape:label="audio controls"
       style="display:none">
      <path
         style="opacity:0.5;vector-effect:none;fill:#ffffff;fill-opacity:1;stroke:none;stroke-width:3.82219887;stroke-linecap:round;stroke-linejoin:round;stroke-miterlimit:4;stroke-dasharray:none;stroke-dashoffset:0;stroke-opacity:1;paint-order:markers fill stroke"
         d="M 50,0 A 50,50 0 0 0 0,50 50,50 0 0 0 50,100 50,50 0 0 0 100,50 50,50 0 0 0 50,0 Z m 18.496094,17.53125 c 1.076168,-0.08998 2.144557,0.426462 2.75,1.482422 l 0.365234,0.634766 0.04297,30.003906 c 0.03918,27.244546 0.01901,30.074114 -0.212891,30.792968 -0.300282,0.930851 -0.580317,1.279202 -1.333984,1.65625 -0.725717,0.363062 -1.535371,0.470834 -2.197266,0.291016 -0.781962,-0.21244 -1.403198,-0.73205 -1.761718,-1.472656 -0.312666,-0.645877 -0.316407,-0.990611 -0.316407,-30.902344 0,-32.684965 -0.04793,-30.867465 0.816407,-31.65625 0.55207,-0.503818 1.201955,-0.776092 1.847655,-0.830078 z m -36.898438,3.109375 c 0.958418,0.07369 1.805108,0.615872 2.253906,1.542969 0.31232,0.645166 0.315935,0.985625 0.3125,27.794922 -0.0036,25.998826 -0.01636,27.168772 -0.294921,27.77539 -0.356397,0.776125 -0.763785,1.152222 -1.552735,1.433594 -0.871904,0.310955 -1.470116,0.277374 -2.269531,-0.126953 -0.411754,-0.20826 -0.902722,-0.641632 -1.181641,-1.042969 l -0.476562,-0.685547 -0.04297,-26.941406 c -0.03922,-24.433661 -0.02078,-27.014479 0.210938,-27.732422 0.290944,-0.901475 0.577494,-1.273043 1.255859,-1.626953 0.594068,-0.309932 1.210105,-0.434838 1.785156,-0.390625 z m 27.613282,9.357422 c 1.243476,-0.04622 2.145821,0.459479 2.71875,1.525391 l 0.339843,0.632812 v 17.8125 c 0,16.489223 -0.02033,17.854622 -0.271484,18.386719 -0.610655,1.293836 -2.124341,1.97384 -3.482422,1.564453 -0.699673,-0.210912 -1.376918,-0.780813 -1.710937,-1.435547 -0.30638,-0.600554 -0.314454,-0.993171 -0.314454,-18.435547 0,-19.056976 -0.02931,-18.284499 0.753907,-19.177734 0.445265,-0.5078 1.203797,-0.844689 1.966797,-0.873047 z m -37.359376,3.09375 c 1.078833,-0.03728 2.140543,0.530267 2.658204,1.599609 0.309072,0.638466 0.316406,0.984108 0.316406,15.333985 0,14.09311 -0.01297,14.703671 -0.300781,15.267578 -0.685983,1.344062 -2.052455,1.896506 -3.578125,1.447265 -0.5765,-0.169752 -1.245294,-0.77153 -1.621094,-1.458984 -0.259117,-0.474005 -0.281688,-1.517095 -0.322266,-14.982422 -0.04856,-16.114781 -0.08512,-15.510379 1.001953,-16.464844 0.54517,-0.478665 1.198404,-0.719819 1.845703,-0.742187 z m 18.810547,3.121094 c 0.984579,-0.0059 1.978168,0.495064 2.552735,1.566406 0.278431,0.519167 0.292969,1.151055 0.292968,12.136719 0,7.803488 -0.05458,11.735056 -0.167968,12.035156 -0.206293,0.546001 -0.873231,1.268468 -1.447266,1.568359 -0.434386,0.226939 -1.687669,0.275182 -2.263672,0.08789 -0.603899,-0.19636 -1.129432,-0.657214 -1.513672,-1.328125 l -0.386718,-0.673828 -0.04883,-11.082031 c -0.03571,-7.885005 0.0022,-11.323334 0.130859,-11.916016 0.334476,-1.541828 1.585676,-2.386956 2.851562,-2.394531 z m 37.183594,0.01367 c 0.148782,-0.0047 0.301268,0.0013 0.458985,0.01758 1.039178,0.107253 1.783763,0.580093 2.283203,1.451171 l 0.363281,0.636719 0.04492,11.478516 0.04492,11.480469 -0.441407,0.86914 c -0.316802,0.625629 -0.616579,0.968208 -1.072265,1.222656 -0.782428,0.436901 -1.992724,0.473157 -2.759766,0.08203 -0.29858,-0.152255 -0.761869,-0.550183 -1.029297,-0.884766 l -0.486328,-0.607422 -0.04297,-11.779297 c -0.04189,-11.346272 -0.03279,-11.801791 0.259766,-12.375 0.517467,-1.013889 1.335477,-1.558779 2.376953,-1.591797 z m -65.164062,6.203126 c 1.142333,0.0425 2.340674,0.892984 2.636718,1.958984 0.09835,0.354141 0.165488,2.651697 0.166016,5.703125 8.89e-4,5.37749 -0.04727,5.79043 -0.757813,6.576172 -0.696941,0.770688 -1.972001,1.070781 -3.121093,0.732422 -0.5765,-0.169748 -1.245294,-0.773484 -1.621094,-1.460938 C 9.7377355,55.488267 9.700084,54.83444 9.65625,50.226562 9.613118,45.694232 9.640675,44.939409 9.8671875,44.369141 c 0.4430485,-1.115354 1.1483785,-1.692317 2.3300785,-1.90625 0.158093,-0.02862 0.321184,-0.03927 0.484375,-0.0332 z m 74.52539,0.0098 c 0.9931,-0.09838 1.981048,0.372961 2.644531,1.375 l 0.441407,0.667969 0.05078,5.158203 c 0.05476,5.516113 0.0074,5.966955 -0.708984,6.818359 C 88.725375,57.539736 87.359987,57.83982 86.125,57.228516 85.723822,57.029939 85.262744,56.623238 85.015625,56.25 L 84.59375,55.613281 84.54492,50.296875 c -0.05444,-5.945865 -0.02272,-6.187195 0.9375,-7.054687 0.530555,-0.479326 1.128749,-0.743709 1.724609,-0.802735 z m -37.359375,0.01172 c 1.125266,-0.08263 2.161761,0.494697 2.728516,1.554687 0.344195,0.643743 0.351562,0.783305 0.351562,5.882813 0,4.131957 -0.04588,5.34106 -0.222656,5.779297 -0.651535,1.615177 -2.347736,2.308066 -3.912109,1.597656 -0.838327,-0.380705 -1.429446,-1.166374 -1.648438,-2.1875 -0.111597,-0.520348 -0.157161,-2.529792 -0.125,-5.611328 0.04809,-4.608379 0.06468,-4.829472 0.402344,-5.460938 0.456077,-0.852897 0.972192,-1.246472 1.939453,-1.478515 0.163321,-0.03918 0.325576,-0.06437 0.486328,-0.07617 z"
         id="audio-controls"
         inkscape:label="#path1087"
         inkscape:connector-curvature="0" />
    </g>
  </g>
</svg>
